<svg width="531" height="532" viewBox="0 0 531 532" fill="none" xmlns="http://www.w3.org/2000/svg">
<path d="M79.9077 447.908C42.8065 410.807 56.7161 346.674 103.817 323.554C149.881 300.943 200.968 271.388 233.745 238.921C267.959 205.03 299.099 151.65 322.723 103.968C346.083 56.8194 410.374 43.0502 447.581 80.257V80.257C485.602 118.278 470.265 184.318 421.507 206.986C373.53 229.29 320.658 258.857 287.35 292.525C255.463 324.757 227.444 375.314 206.13 421.614C183.709 470.32 117.822 485.822 79.9077 447.908V447.908Z" fill="url(#paint0_linear_319_8652)"/>
<path d="M28.7911 310.998H92.7271C111.591 310.998 123.687 297.894 123.687 281.19C123.687 268.806 117.927 259.878 105.831 253.974C104.535 253.254 103.527 252.534 103.527 251.526C103.527 250.806 104.535 249.798 106.263 248.646C115.191 242.454 118.935 236.694 118.935 229.35C118.935 212.214 107.703 204.87 82.7911 204.87H28.5031C22.5991 204.87 20.8711 208.758 20.8711 212.214C20.8711 214.662 21.5911 216.678 24.6151 218.838C28.2151 221.286 29.2231 223.878 29.0791 230.358V285.51C29.2231 291.99 28.2151 294.582 24.6151 297.174C21.5911 299.19 20.8711 301.35 20.8711 303.654C20.8711 307.11 22.7431 310.998 28.7911 310.998ZM62.3431 280.758V271.254C62.3431 268.95 63.6391 267.078 65.6551 265.926C68.8231 264.342 71.7031 263.334 74.4391 263.334C77.4631 263.334 80.1991 264.486 83.0791 266.79C87.1111 270.102 89.2711 274.422 89.2711 281.19C89.2711 288.534 83.2231 295.59 74.8711 295.59C66.6631 295.59 62.3431 290.982 62.3431 280.758ZM62.3431 247.206V225.318C62.3431 222.294 63.9271 220.854 67.2391 220.854H69.1111C79.4791 220.854 84.2311 225.174 84.2311 232.086C84.2311 235.542 82.5031 239.286 78.6151 241.878C74.8711 244.47 70.4071 246.63 66.0871 249.222C64.2151 250.23 62.3431 249.51 62.3431 247.206ZM131.31 310.998H196.254C200.862 310.998 202.878 309.558 204.462 305.382C206.478 299.478 210.078 286.23 210.078 280.758C210.078 276.582 208.206 274.422 204.75 274.422C200.43 274.422 195.822 278.742 192.078 282.054C184.878 288.39 178.974 294.15 173.646 294.15C166.446 294.15 164.718 289.398 164.718 280.902L164.862 231.366C164.718 224.598 166.302 222.006 170.91 219.27C174.798 216.966 175.662 214.95 175.662 212.214C175.662 208.614 173.358 204.726 165.582 204.87H131.022C125.118 204.87 123.39 208.758 123.39 212.214C123.39 214.662 124.11 216.678 127.134 218.838C130.734 221.286 131.742 223.878 131.598 230.358V285.51C131.742 291.99 130.446 294.582 126.846 297.318C123.966 299.334 123.246 301.494 123.246 303.798C123.246 307.254 125.262 311.142 131.31 310.998ZM269.169 313.446C298.689 313.446 324.033 291.846 324.033 262.038C324.033 228.63 299.841 203.43 265.713 203.43C234.897 203.286 210.417 226.758 210.417 257.142C210.417 287.958 230.721 313.446 269.169 313.446ZM246.561 242.454C246.561 228.774 252.033 221.574 260.385 221.718C275.217 222.006 287.889 246.198 287.889 272.838C287.889 287.382 282.993 295.014 273.777 295.014C258.945 295.014 246.561 268.95 246.561 242.454ZM385.184 313.446C414.704 313.446 440.048 291.846 440.048 262.038C440.048 228.63 415.856 203.43 381.728 203.43C350.912 203.286 326.432 226.758 326.432 257.142C326.432 287.958 346.736 313.446 385.184 313.446ZM362.576 242.454C362.576 228.774 368.048 221.574 376.4 221.718C391.232 222.006 403.904 246.198 403.904 272.838C403.904 287.382 399.008 295.014 389.792 295.014C374.96 295.014 362.576 268.95 362.576 242.454ZM443.779 310.998H477.475C484.819 311.142 487.123 307.398 487.123 303.942C487.267 301.494 486.259 299.334 482.803 297.318C478.627 294.582 477.043 291.99 477.187 285.51V284.646C477.187 281.622 478.051 279.894 480.931 278.886C487.123 276.582 495.619 273.846 502.099 271.686C518.803 266.214 530.611 254.118 530.611 239.43C530.611 218.406 515.491 204.87 490.579 204.87H443.491C437.587 204.726 435.715 208.614 435.715 212.07C435.715 214.518 436.435 216.534 439.315 218.694C442.915 221.286 444.211 223.878 444.067 230.358V285.51C444.211 291.99 443.203 294.582 439.603 297.174C436.579 299.19 435.859 301.35 435.859 303.654C435.859 307.11 437.731 310.998 443.779 310.998ZM477.187 257.286V226.614C477.187 224.022 478.051 222.87 480.499 222.87H481.219C488.419 222.87 494.467 231.078 494.467 240.438C494.467 247.926 492.163 252.246 483.667 257.574C481.795 258.726 480.211 259.446 479.203 259.446C477.763 259.446 477.187 258.438 477.187 257.286Z" fill="white"/>
<defs>
<linearGradient id="paint0_linear_319_8652" x1="409.052" y1="115.262" x2="97.3933" y2="421.912" gradientUnits="userSpaceOnUse">
<stop stop-color="#EE6B41"/>
<stop offset="0.28125" stop-color="#FFB5A8" stop-opacity="0.9"/>
<stop offset="0.78125" stop-color="#A170BF" stop-opacity="0.85"/>
<stop offset="1" stop-color="#213C9C"/>
</linearGradient>
</defs>
</svg>
