<svg width="350" height="96" viewBox="0 0 350 96" fill="none" xmlns="http://www.w3.org/2000/svg">
<path d="M117.428 74.3663H146.989C155.711 74.3663 161.304 68.2916 161.304 60.548C161.304 54.8071 158.641 50.6683 153.048 47.9313C152.449 47.5976 151.983 47.2638 151.983 46.7965C151.983 46.4627 152.449 45.9954 153.248 45.4614C157.376 42.5909 159.107 39.9207 159.107 36.5162C159.107 28.5724 153.913 25.1679 142.395 25.1679H117.295C114.566 25.1679 113.767 26.9702 113.767 28.5724C113.767 29.7072 114.099 30.6418 115.498 31.6431C117.162 32.7779 117.628 33.9795 117.562 36.9835V62.5507C117.628 65.5546 117.162 66.7562 115.498 67.9578C114.099 68.8924 113.767 69.8937 113.767 70.9618C113.767 72.5639 114.632 74.3663 117.428 74.3663ZM132.941 60.3478V55.9419C132.941 54.8739 133.54 54.006 134.473 53.472C135.937 52.7377 137.269 52.2704 138.534 52.2704C139.932 52.2704 141.197 52.8045 142.529 53.8725C144.393 55.4079 145.391 57.4105 145.391 60.548C145.391 63.9525 142.595 67.2235 138.734 67.2235C134.939 67.2235 132.941 65.0874 132.941 60.3478ZM132.941 44.7938V34.6471C132.941 33.2452 133.674 32.5777 135.205 32.5777H136.07C140.864 32.5777 143.061 34.5803 143.061 37.7845C143.061 39.3867 142.262 41.1223 140.465 42.3239C138.734 43.5255 136.67 44.5268 134.672 45.7284C133.807 46.1957 132.941 45.8619 132.941 44.7938ZM164.828 74.3663H194.855C196.986 74.3663 197.918 73.6988 198.65 71.7629C199.582 69.0259 201.247 62.8845 201.247 60.3478C201.247 58.4119 200.381 57.4105 198.783 57.4105C196.786 57.4105 194.655 59.4132 192.924 60.9486C189.595 63.8858 186.866 66.556 184.402 66.556C181.073 66.556 180.274 64.3531 180.274 60.4145L180.341 37.4508C180.274 34.3133 181.007 33.1117 183.137 31.8434C184.935 30.7753 185.334 29.8407 185.334 28.5724C185.334 26.9035 184.269 25.1011 180.674 25.1679H164.695C161.965 25.1679 161.166 26.9702 161.166 28.5724C161.166 29.7072 161.499 30.6418 162.897 31.6431C164.562 32.7779 165.028 33.9795 164.961 36.9835V62.5507C165.028 65.5546 164.429 66.7562 162.764 68.0246C161.433 68.9592 161.1 69.9605 161.1 71.0286C161.1 72.6307 162.032 74.4331 164.828 74.3663ZM228.567 75.5011C242.216 75.5011 253.933 65.4879 253.933 51.6696C253.933 36.1824 242.748 24.5003 226.969 24.5003C212.721 24.4336 201.403 35.3146 201.403 49.4C201.403 63.6855 210.791 75.5011 228.567 75.5011ZM218.114 42.5909C218.114 36.2492 220.644 32.9114 224.506 32.9782C231.363 33.1117 237.222 44.3265 237.222 56.6762C237.222 63.4185 234.959 66.9565 230.698 66.9565C223.84 66.9565 218.114 54.8739 218.114 42.5909ZM282.207 75.5011C295.856 75.5011 307.574 65.4879 307.574 51.6696C307.574 36.1824 296.388 24.5003 280.609 24.5003C266.361 24.4336 255.043 35.3146 255.043 49.4C255.043 63.6855 264.431 75.5011 282.207 75.5011ZM271.754 42.5909C271.754 36.2492 274.284 32.9114 278.146 32.9782C285.003 33.1117 290.862 44.3265 290.862 56.6762C290.862 63.4185 288.599 66.9565 284.338 66.9565C277.48 66.9565 271.754 54.8739 271.754 42.5909ZM309.298 74.3663H324.878C328.273 74.4331 329.338 72.6974 329.338 71.0953C329.405 69.9605 328.939 68.9592 327.341 68.0246C325.41 66.7562 324.678 65.5546 324.744 62.5507V62.1502C324.744 60.7483 325.144 59.9472 326.475 59.4799C329.338 58.4119 333.266 57.1435 336.263 56.1422C343.986 53.6055 349.445 47.9981 349.445 41.189C349.445 31.4428 342.454 25.1679 330.936 25.1679H309.165C306.435 25.1011 305.57 26.9035 305.57 28.5056C305.57 29.6404 305.903 30.575 307.234 31.5763C308.899 32.7779 309.498 33.9795 309.431 36.9835V62.5507C309.498 65.5546 309.032 66.7562 307.367 67.9578C305.969 68.8924 305.636 69.8937 305.636 70.9618C305.636 72.5639 306.502 74.3663 309.298 74.3663ZM324.744 49.4667V35.2479C324.744 34.0463 325.144 33.5122 326.276 33.5122H326.609C329.938 33.5122 332.734 37.3173 332.734 41.6563C332.734 45.1276 331.669 47.1303 327.74 49.6002C326.875 50.1343 326.143 50.468 325.677 50.468C325.011 50.468 324.744 50.0007 324.744 49.4667Z" fill="white"/>
<g style="mix-blend-mode:screen">
<path style="mix-blend-mode:screen" d="M14.2107 79.8075C7.61256 73.1918 10.0863 61.7563 18.4628 57.6337C26.655 53.6015 35.7405 48.3316 41.5697 42.5422C47.6542 36.499 53.1927 26.9806 57.3941 18.4782C61.5483 10.0708 72.9823 7.6156 79.599 14.2501C86.3609 21.0298 83.6335 32.8057 74.9621 36.8477C66.4298 40.8249 57.0265 46.0971 51.1029 52.1009C45.4322 57.8479 40.4491 66.863 36.6586 75.1193C32.6711 83.804 20.9537 86.5683 14.2107 79.8075Z" fill="url(#paint0_linear_1012_11807)"/>
</g>
<defs>
<linearGradient id="paint0_linear_1012_11807" x1="72.747" y1="20.4921" x2="17.1762" y2="75.0252" gradientUnits="userSpaceOnUse">
<stop stop-color="#EE6B41"/>
<stop offset="0.28125" stop-color="#FFB5A8" stop-opacity="0.9"/>
<stop offset="0.78125" stop-color="#A170BF" stop-opacity="0.85"/>
<stop offset="1" stop-color="#213C9C"/>
</linearGradient>
</defs>
</svg>
