<svg width="195" height="135" viewBox="0 0 195 135" fill="none" xmlns="http://www.w3.org/2000/svg">
<rect x="192.988" y="131.98" width="190.988" height="129.982" rx="22" transform="rotate(-180 192.988 131.98)" stroke="url(#paint0_linear_1354_9028)" stroke-width="4"/>
<line x1="2.68262" y1="20.4766" x2="195" y2="20.4766" stroke="url(#paint1_linear_1354_9028)" stroke-width="4"/>
<circle cx="27.5508" cy="11.5117" r="2" fill="#2C2E2D"/>
<circle cx="27.5508" cy="11.5117" r="2" fill="#2C2E2D"/>
<circle cx="35.5508" cy="11.5117" r="2" fill="#2C2E2D"/>
<circle cx="35.5508" cy="11.5117" r="2" fill="#2C2E2D"/>
<circle cx="43.5508" cy="11.5117" r="2" fill="#2C2E2D"/>
<circle cx="43.5508" cy="11.5117" r="2" fill="#2C2E2D"/>
<path d="M104.111 29.7378C107.869 30.7678 109.44 35.3056 107.323 38.5771C104.363 43.1505 100.831 49.2764 99.4322 54.3318C97.7781 60.3102 96.9514 68.6041 96.5625 74.0273C96.3598 76.8531 93.627 78.8509 90.8947 78.102V78.102C88.1243 77.3428 86.7997 74.1612 88.1287 71.6145C90.6503 66.7827 94.2535 59.3291 95.8728 53.3563C97.2325 48.3414 97.1716 41.3555 96.816 35.9097C96.5568 31.9411 100.275 28.6865 104.111 29.7378V29.7378Z" fill="url(#paint2_linear_1354_9028)"/>
<path d="M68.0909 109.657C65.9063 108.078 65.7898 104.846 67.7927 103.042C71.3016 99.8815 76.2956 95.0932 79.345 90.8976C82.5037 86.5516 85.6159 80.074 87.5794 75.6407C88.6726 73.1726 91.7815 72.2752 93.9693 73.8566V73.8566C96.1895 75.4614 96.2772 78.7605 94.213 80.5616C90.5514 83.7563 85.3416 88.6259 82.218 92.9742C79.2029 97.1717 76.3424 103.41 74.5194 107.777C73.4654 110.301 70.3081 111.26 68.0909 109.657V109.657Z" fill="url(#paint3_linear_1354_9028)"/>
<path d="M170.102 44.3248C171.484 46.9373 170.135 50.1655 167.31 51.0346C158.601 53.7139 141.341 59.1653 129.411 63.8455C116.919 68.7459 100.299 77.2411 92.3852 81.3896C89.9469 82.6678 86.9342 81.5534 85.9257 78.9918V78.9918C84.9094 76.4104 86.3842 73.5212 89.0673 72.8156C97.7251 70.5391 115.653 65.6045 128.157 60.6615C140.378 55.8304 156.049 46.8727 163.482 42.4737C165.813 41.0939 168.835 41.9303 170.102 44.3248V44.3248Z" fill="url(#paint4_linear_1354_9028)"/>
<path d="M59.553 24.9872C64.0689 21.4963 70.7609 24.1224 71.9623 29.7024C73.9236 38.8113 77.0168 50.5355 80.8789 56.3347C84.0238 61.0567 89.8453 64.8107 95.3123 67.5158C100.709 70.186 102.363 77.8414 97.8758 81.8559V81.8559C92.7643 86.4291 84.2049 82.4166 83.5396 75.5902C82.895 68.9763 81.4983 62.133 78.6222 57.8422C74.3575 51.4799 65.3394 42.5608 59.0688 36.6723C55.6343 33.4471 55.8254 27.8688 59.553 24.9872V24.9872Z" fill="url(#paint5_linear_1354_9028)"/>
<circle cx="91.7686" cy="75.2605" r="5.9184" transform="rotate(15.3265 91.7686 75.2605)" fill="white"/>
<circle cx="91.7686" cy="75.2605" r="5.4184" transform="rotate(15.3265 91.7686 75.2605)" stroke="white" stroke-opacity="0.22"/>
<path d="M94.0482 92.5391L92.0312 85.2663H93.1853L94.6022 90.8984H94.6697L96.1434 85.2663H97.2868L98.7606 90.902H98.828L100.241 85.2663H101.399L99.3785 92.5391H98.2741L96.7435 87.0916H96.6867L95.1562 92.5391H94.0482ZM102.314 92.5391V87.0845H103.376V92.5391H102.314ZM102.851 86.2429C102.666 86.2429 102.507 86.1813 102.375 86.0582C102.245 85.9328 102.179 85.7836 102.179 85.6108C102.179 85.4356 102.245 85.2865 102.375 85.1634C102.507 85.0379 102.666 84.9751 102.851 84.9751C103.035 84.9751 103.193 85.0379 103.323 85.1634C103.455 85.2865 103.522 85.4356 103.522 85.6108C103.522 85.7836 103.455 85.9328 103.323 86.0582C103.193 86.1813 103.035 86.2429 102.851 86.2429ZM105.781 90.6889L105.774 89.3928H105.959L108.132 87.0845H109.403L106.925 89.7124H106.758L105.781 90.6889ZM104.805 92.5391V85.2663H105.866V92.5391H104.805ZM108.249 92.5391L106.296 89.9467L107.028 89.2045L109.552 92.5391H108.249ZM110.371 92.5391V87.0845H111.433V92.5391H110.371ZM110.907 86.2429C110.723 86.2429 110.564 86.1813 110.431 86.0582C110.301 85.9328 110.236 85.7836 110.236 85.6108C110.236 85.4356 110.301 85.2865 110.431 85.1634C110.564 85.0379 110.723 84.9751 110.907 84.9751C111.092 84.9751 111.249 85.0379 111.38 85.1634C111.512 85.2865 111.578 85.4356 111.578 85.6108C111.578 85.7836 111.512 85.9328 111.38 86.0582C111.249 86.1813 111.092 86.2429 110.907 86.2429ZM112.861 94.5845V87.0845H113.898V87.9688H113.987C114.049 87.8551 114.137 87.7237 114.253 87.5746C114.369 87.4254 114.53 87.2952 114.736 87.1839C114.942 87.0703 115.214 87.0135 115.553 87.0135C115.993 87.0135 116.386 87.1248 116.732 87.3473C117.078 87.5698 117.349 87.8906 117.545 88.3097C117.744 88.7287 117.843 89.233 117.843 89.8224C117.843 90.4119 117.745 90.9174 117.549 91.3388C117.352 91.7578 117.082 92.081 116.739 92.3082C116.396 92.5331 116.004 92.6456 115.564 92.6456C115.232 92.6456 114.961 92.59 114.75 92.4787C114.542 92.3674 114.379 92.2372 114.26 92.0881C114.142 91.9389 114.051 91.8063 113.987 91.6903H113.923V94.5845H112.861ZM113.902 89.8118C113.902 90.1953 113.957 90.5315 114.069 90.8203C114.18 91.1091 114.341 91.3352 114.552 91.4986C114.762 91.6596 115.02 91.7401 115.326 91.7401C115.643 91.7401 115.908 91.656 116.121 91.4879C116.334 91.3175 116.495 91.0866 116.604 90.7955C116.715 90.5043 116.771 90.1764 116.771 89.8118C116.771 89.4519 116.717 89.1288 116.608 88.8423C116.501 88.5559 116.34 88.3298 116.125 88.1641C115.912 87.9983 115.645 87.9155 115.326 87.9155C115.018 87.9155 114.758 87.9948 114.544 88.1534C114.334 88.312 114.174 88.5334 114.065 88.8175C113.956 89.1016 113.902 89.433 113.902 89.8118ZM121.384 92.6491C120.847 92.6491 120.384 92.5343 119.995 92.3047C119.61 92.0727 119.311 91.7472 119.101 91.3281C118.892 90.9067 118.788 90.4131 118.788 89.8473C118.788 89.2886 118.892 88.7962 119.101 88.37C119.311 87.9439 119.605 87.6113 119.981 87.3722C120.36 87.133 120.803 87.0135 121.309 87.0135C121.617 87.0135 121.915 87.0644 122.204 87.1662C122.493 87.268 122.752 87.4278 122.982 87.6456C123.212 87.8634 123.393 88.1463 123.525 88.4943C123.658 88.84 123.724 89.2602 123.724 89.755V90.1314H119.388V89.3359H122.684C122.684 89.0566 122.627 88.8092 122.513 88.5938C122.4 88.3759 122.24 88.2043 122.034 88.0788C121.83 87.9534 121.591 87.8906 121.316 87.8906C121.018 87.8906 120.758 87.964 120.535 88.1108C120.315 88.2552 120.145 88.4446 120.024 88.679C119.906 88.911 119.846 89.1631 119.846 89.4354V90.0568C119.846 90.4214 119.91 90.7315 120.038 90.9872C120.168 91.2429 120.349 91.4382 120.581 91.5732C120.813 91.7057 121.084 91.772 121.395 91.772C121.596 91.772 121.779 91.7436 121.945 91.6868C122.111 91.6276 122.254 91.54 122.375 91.424C122.495 91.308 122.588 91.1648 122.652 90.9943L123.657 91.1754C123.576 91.4714 123.432 91.7306 123.223 91.9531C123.017 92.1733 122.758 92.3449 122.446 92.468C122.136 92.5888 121.782 92.6491 121.384 92.6491ZM126.944 92.6456C126.504 92.6456 126.111 92.5331 125.765 92.3082C125.422 92.081 125.152 91.7578 124.956 91.3388C124.761 90.9174 124.664 90.4119 124.664 89.8224C124.664 89.233 124.763 88.7287 124.959 88.3097C125.158 87.8906 125.43 87.5698 125.776 87.3473C126.121 87.1248 126.513 87.0135 126.951 87.0135C127.29 87.0135 127.562 87.0703 127.768 87.1839C127.976 87.2952 128.137 87.4254 128.251 87.5746C128.367 87.7237 128.457 87.8551 128.521 87.9688H128.585V85.2663H129.647V92.5391H128.61V91.6903H128.521C128.457 91.8063 128.365 91.9389 128.244 92.0881C128.126 92.2372 127.962 92.3674 127.754 92.4787C127.545 92.59 127.276 92.6456 126.944 92.6456ZM127.179 91.7401C127.484 91.7401 127.742 91.6596 127.953 91.4986C128.166 91.3352 128.327 91.1091 128.436 90.8203C128.547 90.5315 128.603 90.1953 128.603 89.8118C128.603 89.433 128.548 89.1016 128.439 88.8175C128.33 88.5334 128.17 88.312 127.96 88.1534C127.749 87.9948 127.489 87.9155 127.179 87.9155C126.859 87.9155 126.593 87.9983 126.38 88.1641C126.166 88.3298 126.005 88.5559 125.897 88.8423C125.79 89.1288 125.737 89.4519 125.737 89.8118C125.737 90.1764 125.791 90.5043 125.9 90.7955C126.009 91.0866 126.17 91.3175 126.383 91.4879C126.599 91.656 126.864 91.7401 127.179 91.7401ZM131.162 92.5391V87.0845H132.224V92.5391H131.162ZM131.698 86.2429C131.514 86.2429 131.355 86.1813 131.222 86.0582C131.092 85.9328 131.027 85.7836 131.027 85.6108C131.027 85.4356 131.092 85.2865 131.222 85.1634C131.355 85.0379 131.514 84.9751 131.698 84.9751C131.883 84.9751 132.04 85.0379 132.171 85.1634C132.303 85.2865 132.369 85.4356 132.369 85.6108C132.369 85.7836 132.303 85.9328 132.171 86.0582C132.04 86.1813 131.883 86.2429 131.698 86.2429ZM135.24 92.6598C134.894 92.6598 134.581 92.5959 134.302 92.468C134.023 92.3378 133.801 92.1496 133.638 91.9034C133.477 91.6572 133.397 91.3554 133.397 90.9979C133.397 90.6901 133.456 90.4368 133.574 90.2379C133.693 90.0391 133.852 89.8816 134.054 89.7656C134.255 89.6496 134.48 89.562 134.728 89.5028C134.977 89.4437 135.23 89.3987 135.488 89.3679C135.815 89.33 136.08 89.2992 136.284 89.2756C136.487 89.2495 136.635 89.2081 136.728 89.1513C136.82 89.0945 136.866 89.0021 136.866 88.8743V88.8494C136.866 88.5393 136.778 88.299 136.603 88.1286C136.43 87.9581 136.172 87.8729 135.829 87.8729C135.472 87.8729 135.19 87.9522 134.984 88.1108C134.78 88.267 134.639 88.4411 134.561 88.6328L133.563 88.4055C133.682 88.0741 133.855 87.8066 134.082 87.603C134.312 87.397 134.576 87.2479 134.874 87.1555C135.172 87.0608 135.486 87.0135 135.815 87.0135C136.033 87.0135 136.264 87.0395 136.507 87.0916C136.754 87.1413 136.983 87.2337 137.196 87.3686C137.412 87.5036 137.588 87.6965 137.725 87.9474C137.863 88.196 137.931 88.5192 137.931 88.9169V92.5391H136.894V91.7933H136.852C136.783 91.9306 136.68 92.0656 136.543 92.1982C136.406 92.3307 136.229 92.4408 136.014 92.5284C135.798 92.616 135.54 92.6598 135.24 92.6598ZM135.47 91.8075C135.764 91.8075 136.015 91.7495 136.223 91.6335C136.434 91.5175 136.594 91.366 136.703 91.179C136.814 90.9896 136.87 90.7872 136.87 90.5717V89.8686C136.832 89.9065 136.758 89.942 136.649 89.9751C136.543 90.0059 136.421 90.0331 136.284 90.0568C136.146 90.0781 136.013 90.0982 135.882 90.1172C135.752 90.1338 135.643 90.148 135.556 90.1598C135.35 90.1858 135.161 90.2296 134.991 90.2912C134.823 90.3527 134.688 90.4415 134.586 90.5575C134.487 90.6712 134.437 90.8227 134.437 91.0121C134.437 91.2749 134.534 91.4737 134.728 91.6087C134.922 91.7412 135.17 91.8075 135.47 91.8075Z" fill="#C9CECD"/>
<path d="M31.3054 33.8906V33.1349H35.8082V33.8906H33.9929V38.9531H33.1179V33.8906H31.3054ZM37.3118 33.1349L38.9311 37.8736H38.9964L40.6158 33.1349H41.5646L39.4709 38.9531H38.4567L36.3629 33.1349H37.3118ZM31.3054 43.8906V43.1349H35.8082V43.8906H33.9929V48.9531H33.1179V43.8906H31.3054ZM36.282 48.9531V44.5895H37.103V45.2827H37.1484C37.228 45.0478 37.3681 44.8632 37.5689 44.7287C37.7715 44.5923 38.0007 44.5241 38.2564 44.5241C38.3094 44.5241 38.3719 44.526 38.4439 44.5298C38.5178 44.5336 38.5755 44.5384 38.6172 44.544V45.3565C38.5831 45.3471 38.5225 45.3366 38.4354 45.3253C38.3482 45.312 38.2611 45.3054 38.174 45.3054C37.9732 45.3054 37.7943 45.348 37.6371 45.4332C37.4818 45.5166 37.3587 45.633 37.2678 45.7827C37.1768 45.9304 37.1314 46.099 37.1314 46.2884V48.9531H36.282ZM41.0341 49.0412C40.625 49.0412 40.268 48.9474 39.9631 48.7599C39.6581 48.5724 39.4214 48.3101 39.2528 47.973C39.0843 47.6359 39 47.242 39 46.7912C39 46.3385 39.0843 45.9427 39.2528 45.6037C39.4214 45.2647 39.6581 45.0014 39.9631 44.8139C40.268 44.6264 40.625 44.5327 41.0341 44.5327C41.4432 44.5327 41.8002 44.6264 42.1051 44.8139C42.41 45.0014 42.6468 45.2647 42.8153 45.6037C42.9839 45.9427 43.0682 46.3385 43.0682 46.7912C43.0682 47.242 42.9839 47.6359 42.8153 47.973C42.6468 48.3101 42.41 48.5724 42.1051 48.7599C41.8002 48.9474 41.4432 49.0412 41.0341 49.0412ZM41.0369 48.3281C41.3021 48.3281 41.5218 48.258 41.696 48.1179C41.8703 47.9777 41.9991 47.7912 42.0824 47.5582C42.1676 47.3253 42.2102 47.0687 42.2102 46.7884C42.2102 46.5099 42.1676 46.2543 42.0824 46.0213C41.9991 45.7865 41.8703 45.598 41.696 45.456C41.5218 45.3139 41.3021 45.2429 41.0369 45.2429C40.7699 45.2429 40.5483 45.3139 40.3722 45.456C40.1979 45.598 40.0682 45.7865 39.983 46.0213C39.8996 46.2543 39.858 46.5099 39.858 46.7884C39.858 47.0687 39.8996 47.3253 39.983 47.5582C40.0682 47.7912 40.1979 47.9777 40.3722 48.1179C40.5483 48.258 40.7699 48.3281 41.0369 48.3281ZM44.0163 50.5895V44.5895H44.8459V45.2969H44.9169C44.9661 45.206 45.0372 45.1009 45.13 44.9815C45.2228 44.8622 45.3516 44.758 45.5163 44.669C45.6811 44.5781 45.8989 44.5327 46.1697 44.5327C46.522 44.5327 46.8364 44.6217 47.1129 44.7997C47.3894 44.9777 47.6063 45.2344 47.7635 45.5696C47.9226 45.9048 48.0021 46.3082 48.0021 46.7798C48.0021 47.2514 47.9235 47.6558 47.7663 47.9929C47.6091 48.3281 47.3932 48.5866 47.1186 48.7685C46.844 48.9484 46.5305 49.0384 46.1783 49.0384C45.9131 49.0384 45.6963 48.9938 45.5277 48.9048C45.361 48.8158 45.2304 48.7116 45.1357 48.5923C45.041 48.473 44.968 48.367 44.9169 48.2741H44.8658V50.5895H44.0163ZM44.8487 46.7713C44.8487 47.0781 44.8932 47.3471 44.9822 47.5781C45.0713 47.8092 45.2 47.9901 45.3686 48.1207C45.5372 48.2495 45.7436 48.3139 45.9879 48.3139C46.2417 48.3139 46.4538 48.2467 46.6243 48.1122C46.7947 47.9759 46.9235 47.7912 47.0107 47.5582C47.0997 47.3253 47.1442 47.063 47.1442 46.7713C47.1442 46.4834 47.1006 46.2249 47.0135 45.9957C46.9283 45.7666 46.7995 45.5857 46.6271 45.4531C46.4567 45.3205 46.2436 45.2543 45.9879 45.2543C45.7417 45.2543 45.5334 45.3177 45.3629 45.4446C45.1944 45.5715 45.0665 45.7486 44.9794 45.9759C44.8923 46.2031 44.8487 46.4683 44.8487 46.7713ZM50.8345 49.0412C50.4046 49.0412 50.0343 48.9493 49.7237 48.7656C49.415 48.58 49.1764 48.3196 49.0078 47.9844C48.8411 47.6473 48.7578 47.2524 48.7578 46.7997C48.7578 46.3527 48.8411 45.9588 49.0078 45.6179C49.1764 45.277 49.4112 45.0109 49.7124 44.8196C50.0154 44.6283 50.3696 44.5327 50.7749 44.5327C51.0211 44.5327 51.2597 44.5734 51.4908 44.6548C51.7218 44.7363 51.9292 44.8641 52.1129 45.0384C52.2966 45.2126 52.4415 45.4389 52.5476 45.7173C52.6536 45.9938 52.7067 46.33 52.7067 46.7259V47.027H49.2379V46.3906H51.8743C51.8743 46.1671 51.8288 45.9692 51.7379 45.7969C51.647 45.6226 51.5192 45.4853 51.3544 45.3849C51.1915 45.2846 51.0002 45.2344 50.7805 45.2344C50.5419 45.2344 50.3336 45.2931 50.1555 45.4105C49.9794 45.526 49.843 45.6776 49.7464 45.8651C49.6518 46.0507 49.6044 46.2524 49.6044 46.4702V46.9673C49.6044 47.259 49.6555 47.5071 49.7578 47.7116C49.862 47.9162 50.0069 48.0724 50.1925 48.1804C50.3781 48.2865 50.5949 48.3395 50.843 48.3395C51.004 48.3395 51.1508 48.3168 51.2834 48.2713C51.416 48.224 51.5305 48.1539 51.6271 48.0611C51.7237 47.9683 51.7976 47.8537 51.8487 47.7173L52.6527 47.8622C52.5883 48.099 52.4728 48.3063 52.3061 48.4844C52.1413 48.6605 51.9339 48.7978 51.6839 48.8963C51.4358 48.9929 51.1527 49.0412 50.8345 49.0412ZM56.919 45.6548L56.1491 45.7912C56.117 45.6927 56.0658 45.599 55.9957 45.5099C55.9276 45.4209 55.8348 45.348 55.7173 45.2912C55.5999 45.2344 55.4531 45.206 55.277 45.206C55.0365 45.206 54.8357 45.2599 54.6747 45.3679C54.5137 45.474 54.4332 45.6113 54.4332 45.7798C54.4332 45.9257 54.4872 46.0431 54.5952 46.1321C54.7031 46.2211 54.8774 46.294 55.1179 46.3509L55.8111 46.5099C56.2126 46.6027 56.5118 46.7457 56.7088 46.9389C56.9058 47.1321 57.0043 47.383 57.0043 47.6918C57.0043 47.9531 56.9285 48.1861 56.777 48.3906C56.6274 48.5933 56.4181 48.7524 56.1491 48.8679C55.8821 48.9834 55.5724 49.0412 55.2202 49.0412C54.7315 49.0412 54.3329 48.937 54.0241 48.7287C53.7154 48.5185 53.526 48.2202 53.456 47.8338L54.277 47.7088C54.3281 47.9228 54.4332 48.0848 54.5923 48.1946C54.7514 48.3026 54.9588 48.3565 55.2145 48.3565C55.4929 48.3565 55.7154 48.2988 55.8821 48.1832C56.0488 48.0658 56.1321 47.9228 56.1321 47.7543C56.1321 47.6179 56.081 47.5033 55.9787 47.4105C55.8783 47.3177 55.724 47.2476 55.5156 47.2003L54.777 47.0384C54.3698 46.9455 54.0687 46.7978 53.8736 46.5952C53.6804 46.3925 53.5838 46.1359 53.5838 45.8253C53.5838 45.5677 53.6558 45.3423 53.7997 45.1491C53.9437 44.956 54.1425 44.8054 54.3963 44.6974C54.6501 44.5876 54.9408 44.5327 55.2685 44.5327C55.7401 44.5327 56.1113 44.6349 56.3821 44.8395C56.6529 45.0421 56.8319 45.3139 56.919 45.6548ZM58.4979 49.0071C58.3426 49.0071 58.209 48.9522 58.0973 48.8423C57.9856 48.7306 57.9297 48.5961 57.9297 48.4389C57.9297 48.2836 57.9856 48.151 58.0973 48.0412C58.209 47.9295 58.3426 47.8736 58.4979 47.8736C58.6532 47.8736 58.7867 47.9295 58.8984 48.0412C59.0102 48.151 59.0661 48.2836 59.0661 48.4389C59.0661 48.5431 59.0395 48.6387 58.9865 48.7259C58.9354 48.8111 58.8672 48.8793 58.782 48.9304C58.6967 48.9815 58.602 49.0071 58.4979 49.0071ZM60.7635 49.0071C60.6082 49.0071 60.4747 48.9522 60.3629 48.8423C60.2512 48.7306 60.1953 48.5961 60.1953 48.4389C60.1953 48.2836 60.2512 48.151 60.3629 48.0412C60.4747 47.9295 60.6082 47.8736 60.7635 47.8736C60.9188 47.8736 61.0523 47.9295 61.1641 48.0412C61.2758 48.151 61.3317 48.2836 61.3317 48.4389C61.3317 48.5431 61.3052 48.6387 61.2521 48.7259C61.201 48.8111 61.1328 48.8793 61.0476 48.9304C60.9624 48.9815 60.8677 49.0071 60.7635 49.0071ZM63.0291 49.0071C62.8738 49.0071 62.7403 48.9522 62.6286 48.8423C62.5168 48.7306 62.4609 48.5961 62.4609 48.4389C62.4609 48.2836 62.5168 48.151 62.6286 48.0412C62.7403 47.9295 62.8738 47.8736 63.0291 47.8736C63.1844 47.8736 63.3179 47.9295 63.4297 48.0412C63.5414 48.151 63.5973 48.2836 63.5973 48.4389C63.5973 48.5431 63.5708 48.6387 63.5178 48.7259C63.4666 48.8111 63.3984 48.8793 63.3132 48.9304C63.228 48.9815 63.1333 49.0071 63.0291 49.0071Z" fill="#C9CECD" fill-opacity="0.6"/>
<path d="M114.238 33.7969L112.625 27.9787H113.548L114.682 32.4844H114.736L115.915 27.9787H116.829L118.008 32.4872H118.062L119.193 27.9787H120.119L118.503 33.7969H117.619L116.395 29.4389H116.349L115.125 33.7969H114.238ZM121.701 31.206V33.7969H120.851V27.9787H121.689V30.1435H121.743C121.846 29.9086 122.002 29.7221 122.212 29.5838C122.422 29.4455 122.697 29.3764 123.036 29.3764C123.335 29.3764 123.597 29.438 123.82 29.5611C124.045 29.6842 124.22 29.8679 124.343 30.1122C124.468 30.3546 124.53 30.6577 124.53 31.0213V33.7969H123.681V31.1236C123.681 30.8035 123.598 30.5554 123.434 30.3793C123.269 30.2012 123.04 30.1122 122.746 30.1122C122.545 30.1122 122.366 30.1548 122.206 30.2401C122.049 30.3253 121.925 30.4503 121.834 30.6151C121.745 30.7779 121.701 30.9749 121.701 31.206ZM126.934 33.8935C126.657 33.8935 126.407 33.8423 126.184 33.7401C125.96 33.6359 125.783 33.4853 125.652 33.2884C125.524 33.0914 125.459 32.8499 125.459 32.5639C125.459 32.3177 125.507 32.1151 125.601 31.956C125.696 31.7969 125.824 31.6709 125.985 31.5781C126.146 31.4853 126.326 31.4152 126.525 31.3679C126.723 31.3205 126.926 31.2846 127.133 31.2599C127.394 31.2296 127.606 31.205 127.769 31.1861C127.932 31.1652 128.05 31.1321 128.124 31.0866C128.198 31.0412 128.235 30.9673 128.235 30.8651V30.8452C128.235 30.5971 128.165 30.4048 128.025 30.2685C127.886 30.1321 127.68 30.0639 127.405 30.0639C127.119 30.0639 126.894 30.1274 126.729 30.2543C126.566 30.3793 126.454 30.5185 126.391 30.6719L125.593 30.4901C125.687 30.2249 125.826 30.0109 126.008 29.848C126.191 29.6832 126.402 29.5639 126.641 29.4901C126.88 29.4143 127.131 29.3764 127.394 29.3764C127.568 29.3764 127.753 29.3973 127.948 29.4389C128.145 29.4787 128.329 29.5526 128.499 29.6605C128.671 29.7685 128.812 29.9228 128.922 30.1236C129.032 30.3224 129.087 30.581 129.087 30.8991V33.7969H128.258V33.2003H128.223C128.169 33.3101 128.086 33.4181 127.976 33.5241C127.866 33.6302 127.725 33.7183 127.553 33.7884C127.381 33.8584 127.174 33.8935 126.934 33.8935ZM127.118 33.2116C127.353 33.2116 127.554 33.1652 127.721 33.0724C127.889 32.9796 128.017 32.8584 128.104 32.7088C128.193 32.5573 128.238 32.3954 128.238 32.223V31.6605C128.207 31.6908 128.149 31.7192 128.062 31.7457C127.976 31.7704 127.879 31.7921 127.769 31.8111C127.659 31.8281 127.552 31.8442 127.448 31.8594C127.344 31.8726 127.257 31.884 127.187 31.8935C127.022 31.9143 126.871 31.9493 126.735 31.9986C126.6 32.0478 126.492 32.1188 126.411 32.2116C126.331 32.3026 126.292 32.4238 126.292 32.5753C126.292 32.7855 126.369 32.9446 126.525 33.0526C126.68 33.1586 126.878 33.2116 127.118 33.2116ZM132.255 29.4332V30.1151H129.872V29.4332H132.255ZM130.511 28.3878H131.361V32.5156C131.361 32.6804 131.385 32.8045 131.434 32.8878C131.484 32.9692 131.547 33.0251 131.625 33.0554C131.704 33.0838 131.79 33.098 131.883 33.098C131.951 33.098 132.011 33.0933 132.062 33.0838C132.113 33.0743 132.153 33.0668 132.182 33.0611L132.335 33.7628C132.286 33.7817 132.216 33.8007 132.125 33.8196C132.034 33.8404 131.92 33.8518 131.784 33.8537C131.56 33.8575 131.352 33.8177 131.159 33.7344C130.966 33.651 130.809 33.5223 130.69 33.348C130.571 33.1738 130.511 32.955 130.511 32.6918V28.3878ZM114.301 43.8935C114.024 43.8935 113.774 43.8423 113.551 43.7401C113.327 43.6359 113.15 43.4853 113.02 43.2884C112.891 43.0914 112.826 42.8499 112.826 42.5639C112.826 42.3177 112.874 42.1151 112.968 41.956C113.063 41.7969 113.191 41.6709 113.352 41.5781C113.513 41.4853 113.693 41.4152 113.892 41.3679C114.091 41.3205 114.293 41.2846 114.5 41.2599C114.761 41.2296 114.973 41.205 115.136 41.1861C115.299 41.1652 115.417 41.1321 115.491 41.0866C115.565 41.0412 115.602 40.9673 115.602 40.8651V40.8452C115.602 40.5971 115.532 40.4048 115.392 40.2685C115.254 40.1321 115.047 40.0639 114.772 40.0639C114.486 40.0639 114.261 40.1274 114.096 40.2543C113.933 40.3793 113.821 40.5185 113.758 40.6719L112.96 40.4901C113.055 40.2249 113.193 40.0109 113.375 39.848C113.558 39.6832 113.77 39.5639 114.008 39.4901C114.247 39.4143 114.498 39.3764 114.761 39.3764C114.935 39.3764 115.12 39.3973 115.315 39.4389C115.512 39.4787 115.696 39.5526 115.866 39.6605C116.039 39.7685 116.18 39.9228 116.29 40.1236C116.399 40.3224 116.454 40.581 116.454 40.8991V43.7969H115.625V43.2003H115.591C115.536 43.3101 115.453 43.4181 115.343 43.5241C115.234 43.6302 115.093 43.7183 114.92 43.7884C114.748 43.8584 114.541 43.8935 114.301 43.8935ZM114.486 43.2116C114.72 43.2116 114.921 43.1652 115.088 43.0724C115.256 42.9796 115.384 42.8584 115.471 42.7088C115.56 42.5573 115.605 42.3954 115.605 42.223V41.6605C115.575 41.6908 115.516 41.7192 115.429 41.7457C115.343 41.7704 115.246 41.7921 115.136 41.8111C115.026 41.8281 114.919 41.8442 114.815 41.8594C114.711 41.8726 114.624 41.884 114.554 41.8935C114.389 41.9143 114.238 41.9493 114.102 41.9986C113.968 42.0478 113.86 42.1188 113.778 42.2116C113.699 42.3026 113.659 42.4238 113.659 42.5753C113.659 42.7855 113.736 42.9446 113.892 43.0526C114.047 43.1586 114.245 43.2116 114.486 43.2116ZM117.586 43.7969V39.4332H118.407V40.1264H118.452C118.532 39.8916 118.672 39.7069 118.873 39.5724C119.075 39.4361 119.304 39.3679 119.56 39.3679C119.613 39.3679 119.676 39.3698 119.748 39.3736C119.821 39.3774 119.879 39.3821 119.921 39.3878V40.2003C119.887 40.1908 119.826 40.1804 119.739 40.169C119.652 40.1558 119.565 40.1491 119.478 40.1491C119.277 40.1491 119.098 40.1918 118.941 40.277C118.785 40.3603 118.662 40.4768 118.571 40.6264C118.481 40.7741 118.435 40.9427 118.435 41.1321V43.7969H117.586ZM122.38 43.8849C121.95 43.8849 121.58 43.7931 121.27 43.6094C120.961 43.4238 120.722 43.1634 120.554 42.8281C120.387 42.491 120.304 42.0961 120.304 41.6435C120.304 41.1965 120.387 40.8026 120.554 40.4616C120.722 40.1207 120.957 39.8546 121.258 39.6634C121.561 39.4721 121.915 39.3764 122.321 39.3764C122.567 39.3764 122.806 39.4171 123.037 39.4986C123.268 39.58 123.475 39.7079 123.659 39.8821C123.843 40.0563 123.987 40.2827 124.093 40.5611C124.2 40.8376 124.253 41.1738 124.253 41.5696V41.8707H120.784V41.2344H123.42C123.42 41.0109 123.375 40.813 123.284 40.6406C123.193 40.4664 123.065 40.3291 122.9 40.2287C122.737 40.1283 122.546 40.0781 122.326 40.0781C122.088 40.0781 121.879 40.1368 121.701 40.2543C121.525 40.3698 121.389 40.5213 121.292 40.7088C121.198 40.8944 121.15 41.0961 121.15 41.3139V41.8111C121.15 42.1027 121.201 42.3509 121.304 42.5554C121.408 42.7599 121.553 42.9162 121.738 43.0241C121.924 43.1302 122.141 43.1832 122.389 43.1832C122.55 43.1832 122.697 43.1605 122.829 43.1151C122.962 43.0677 123.076 42.9976 123.173 42.9048C123.27 42.812 123.343 42.6974 123.395 42.5611L124.199 42.706C124.134 42.9427 124.019 43.1501 123.852 43.3281C123.687 43.5043 123.48 43.6416 123.23 43.7401C122.982 43.8366 122.699 43.8849 122.38 43.8849ZM125.755 43.8509C125.599 43.8509 125.466 43.7959 125.354 43.6861C125.242 43.5743 125.187 43.4399 125.187 43.2827C125.187 43.1274 125.242 42.9948 125.354 42.8849C125.466 42.7732 125.599 42.7173 125.755 42.7173C125.91 42.7173 126.044 42.7732 126.155 42.8849C126.267 42.9948 126.323 43.1274 126.323 43.2827C126.323 43.3868 126.296 43.4825 126.243 43.5696C126.192 43.6548 126.124 43.723 126.039 43.7741C125.954 43.8253 125.859 43.8509 125.755 43.8509ZM128.02 43.8509C127.865 43.8509 127.732 43.7959 127.62 43.6861C127.508 43.5743 127.452 43.4399 127.452 43.2827C127.452 43.1274 127.508 42.9948 127.62 42.8849C127.732 42.7732 127.865 42.7173 128.02 42.7173C128.176 42.7173 128.309 42.7732 128.421 42.8849C128.533 42.9948 128.589 43.1274 128.589 43.2827C128.589 43.3868 128.562 43.4825 128.509 43.5696C128.458 43.6548 128.39 43.723 128.304 43.7741C128.219 43.8253 128.124 43.8509 128.02 43.8509ZM130.286 43.8509C130.131 43.8509 129.997 43.7959 129.885 43.6861C129.774 43.5743 129.718 43.4399 129.718 43.2827C129.718 43.1274 129.774 42.9948 129.885 42.8849C129.997 42.7732 130.131 42.7173 130.286 42.7173C130.441 42.7173 130.575 42.7732 130.687 42.8849C130.798 42.9948 130.854 43.1274 130.854 43.2827C130.854 43.3868 130.828 43.4825 130.775 43.5696C130.723 43.6548 130.655 43.723 130.57 43.7741C130.485 43.8253 130.39 43.8509 130.286 43.8509Z" fill="#828886"/>
<path d="M151.253 61.9375V57.5739H152.074V58.267H152.119C152.199 58.0322 152.339 57.8475 152.54 57.7131C152.742 57.5767 152.971 57.5085 153.227 57.5085C153.28 57.5085 153.343 57.5104 153.415 57.5142C153.488 57.518 153.546 57.5227 153.588 57.5284V58.3409C153.554 58.3314 153.493 58.321 153.406 58.3097C153.319 58.2964 153.232 58.2898 153.145 58.2898C152.944 58.2898 152.765 58.3324 152.608 58.4176C152.452 58.5009 152.329 58.6174 152.238 58.767C152.148 58.9148 152.102 59.0833 152.102 59.2727V61.9375H151.253ZM156.273 55.8466L154.398 62.8125H153.64L155.515 55.8466H156.273ZM160.265 58.6392L159.495 58.7756C159.463 58.6771 159.412 58.5833 159.341 58.4943C159.273 58.4053 159.18 58.3324 159.063 58.2756C158.946 58.2187 158.799 58.1903 158.623 58.1903C158.382 58.1903 158.181 58.2443 158.02 58.3523C157.859 58.4583 157.779 58.5956 157.779 58.7642C157.779 58.91 157.833 59.0275 157.941 59.1165C158.049 59.2055 158.223 59.2784 158.464 59.3352L159.157 59.4943C159.558 59.5871 159.858 59.7301 160.055 59.9233C160.251 60.1165 160.35 60.3674 160.35 60.6761C160.35 60.9375 160.274 61.1705 160.123 61.375C159.973 61.5777 159.764 61.7367 159.495 61.8523C159.228 61.9678 158.918 62.0256 158.566 62.0256C158.077 62.0256 157.679 61.9214 157.37 61.7131C157.061 61.5028 156.872 61.2045 156.802 60.8182L157.623 60.6932C157.674 60.9072 157.779 61.0691 157.938 61.179C158.097 61.2869 158.305 61.3409 158.56 61.3409C158.839 61.3409 159.061 61.2831 159.228 61.1676C159.394 61.0502 159.478 60.9072 159.478 60.7386C159.478 60.6023 159.427 60.4877 159.324 60.3949C159.224 60.3021 159.07 60.232 158.861 60.1847L158.123 60.0227C157.715 59.9299 157.414 59.7822 157.219 59.5795C157.026 59.3769 156.93 59.1203 156.93 58.8097C156.93 58.5521 157.001 58.3267 157.145 58.1335C157.289 57.9403 157.488 57.7898 157.742 57.6818C157.996 57.572 158.287 57.517 158.614 57.517C159.086 57.517 159.457 57.6193 159.728 57.8239C159.999 58.0265 160.178 58.2983 160.265 58.6392ZM163.122 62.0256C162.7 62.0256 162.336 61.9299 162.031 61.7386C161.728 61.5455 161.495 61.2794 161.332 60.9403C161.169 60.6013 161.088 60.2131 161.088 59.7756C161.088 59.3324 161.171 58.9413 161.338 58.6023C161.505 58.2614 161.739 57.9953 162.042 57.804C162.345 57.6127 162.702 57.517 163.113 57.517C163.445 57.517 163.74 57.5786 164 57.7017C164.259 57.8229 164.469 57.9934 164.628 58.2131C164.789 58.4328 164.884 58.6894 164.915 58.983H164.088C164.042 58.7784 163.938 58.6023 163.775 58.4545C163.614 58.3068 163.398 58.233 163.128 58.233C162.891 58.233 162.684 58.2955 162.506 58.4205C162.329 58.5436 162.192 58.7197 162.094 58.9489C161.995 59.1761 161.946 59.4451 161.946 59.7557C161.946 60.0739 161.994 60.3485 162.091 60.5795C162.187 60.8106 162.324 60.9896 162.5 61.1165C162.678 61.2434 162.887 61.3068 163.128 61.3068C163.289 61.3068 163.434 61.2775 163.565 61.2188C163.698 61.1581 163.809 61.072 163.898 60.9602C163.988 60.8485 164.052 60.714 164.088 60.5568H164.915C164.884 60.839 164.792 61.0909 164.639 61.3125C164.486 61.5341 164.28 61.7083 164.023 61.8352C163.767 61.9621 163.467 62.0256 163.122 62.0256ZM165.823 61.9375V57.5739H166.672V61.9375H165.823ZM166.252 56.9006C166.104 56.9006 165.977 56.8513 165.871 56.7528C165.767 56.6525 165.715 56.5331 165.715 56.3949C165.715 56.2547 165.767 56.1354 165.871 56.0369C165.977 55.9366 166.104 55.8864 166.252 55.8864C166.4 55.8864 166.526 55.9366 166.63 56.0369C166.736 56.1354 166.789 56.2547 166.789 56.3949C166.789 56.5331 166.736 56.6525 166.63 56.7528C166.526 56.8513 166.4 56.9006 166.252 56.9006ZM169.892 57.5739V58.2557H167.426V57.5739H169.892ZM168.102 61.9375V57.0682C168.102 56.7955 168.162 56.5691 168.281 56.3892C168.4 56.2074 168.559 56.072 168.756 55.983C168.952 55.892 169.166 55.8466 169.398 55.8466C169.568 55.8466 169.714 55.8608 169.835 55.8892C169.956 55.9157 170.046 55.9403 170.105 55.9631L169.906 56.6506C169.866 56.6392 169.815 56.6259 169.753 56.6108C169.69 56.5937 169.614 56.5852 169.525 56.5852C169.319 56.5852 169.171 56.6364 169.082 56.7386C168.995 56.8409 168.952 56.9886 168.952 57.1818V61.9375H168.102ZM170.768 61.9375V57.5739H171.618V61.9375H170.768ZM171.197 56.9006C171.05 56.9006 170.923 56.8513 170.817 56.7528C170.712 56.6525 170.66 56.5331 170.66 56.3949C170.66 56.2547 170.712 56.1354 170.817 56.0369C170.923 55.9366 171.05 55.8864 171.197 55.8864C171.345 55.8864 171.471 55.9366 171.575 56.0369C171.681 56.1354 171.734 56.2547 171.734 56.3949C171.734 56.5331 171.681 56.6525 171.575 56.7528C171.471 56.8513 171.345 56.9006 171.197 56.9006ZM173.491 56.1193V56.6648C173.491 56.8258 173.46 56.9953 173.4 57.1733C173.341 57.3494 173.258 57.5189 173.15 57.6818C173.042 57.8447 172.915 57.9848 172.769 58.1023L172.349 57.8011C172.46 57.6383 172.557 57.465 172.638 57.2812C172.722 57.0975 172.763 56.8949 172.763 56.6733V56.1193H173.491ZM177.03 58.6392L176.26 58.7756C176.228 58.6771 176.177 58.5833 176.107 58.4943C176.039 58.4053 175.946 58.3324 175.829 58.2756C175.711 58.2187 175.564 58.1903 175.388 58.1903C175.148 58.1903 174.947 58.2443 174.786 58.3523C174.625 58.4583 174.545 58.5956 174.545 58.7642C174.545 58.91 174.599 59.0275 174.706 59.1165C174.814 59.2055 174.989 59.2784 175.229 59.3352L175.922 59.4943C176.324 59.5871 176.623 59.7301 176.82 59.9233C177.017 60.1165 177.116 60.3674 177.116 60.6761C177.116 60.9375 177.04 61.1705 176.888 61.375C176.739 61.5777 176.529 61.7367 176.26 61.8523C175.993 61.9678 175.684 62.0256 175.331 62.0256C174.843 62.0256 174.444 61.9214 174.135 61.7131C173.827 61.5028 173.637 61.2045 173.567 60.8182L174.388 60.6932C174.439 60.9072 174.545 61.0691 174.704 61.179C174.863 61.2869 175.07 61.3409 175.326 61.3409C175.604 61.3409 175.827 61.2831 175.993 61.1676C176.16 61.0502 176.243 60.9072 176.243 60.7386C176.243 60.6023 176.192 60.4877 176.09 60.3949C175.99 60.3021 175.835 60.232 175.627 60.1847L174.888 60.0227C174.481 59.9299 174.18 59.7822 173.985 59.5795C173.792 59.3769 173.695 59.1203 173.695 58.8097C173.695 58.5521 173.767 58.3267 173.911 58.1335C174.055 57.9403 174.254 57.7898 174.508 57.6818C174.761 57.572 175.052 57.517 175.38 57.517C175.851 57.517 176.223 57.6193 176.493 57.8239C176.764 58.0265 176.943 58.2983 177.03 58.6392ZM151.253 71.9375V67.5739H152.068V68.2841H152.122C152.213 68.0436 152.362 67.8561 152.568 67.7216C152.774 67.5852 153.022 67.517 153.309 67.517C153.601 67.517 153.845 67.5852 154.042 67.7216C154.241 67.858 154.388 68.0455 154.483 68.2841H154.528C154.632 68.0511 154.798 67.8655 155.025 67.7273C155.253 67.5871 155.523 67.517 155.838 67.517C156.234 67.517 156.557 67.6411 156.807 67.8892C157.059 68.1373 157.184 68.5114 157.184 69.0114V71.9375H156.335V69.0909C156.335 68.7955 156.255 68.5814 156.094 68.4489C155.933 68.3163 155.74 68.25 155.517 68.25C155.24 68.25 155.025 68.3352 154.872 68.5057C154.719 68.6742 154.642 68.8911 154.642 69.1562V71.9375H153.795V69.0369C153.795 68.8002 153.721 68.6098 153.574 68.4659C153.426 68.322 153.234 68.25 152.997 68.25C152.836 68.25 152.687 68.2926 152.551 68.3778C152.416 68.4612 152.308 68.5777 152.224 68.7273C152.143 68.8769 152.102 69.0502 152.102 69.2472V71.9375H151.253ZM160.161 72.0256C159.752 72.0256 159.395 71.9318 159.09 71.7443C158.785 71.5568 158.548 71.2945 158.38 70.9574C158.211 70.6203 158.127 70.2263 158.127 69.7756C158.127 69.3229 158.211 68.9271 158.38 68.5881C158.548 68.2491 158.785 67.9858 159.09 67.7983C159.395 67.6108 159.752 67.517 160.161 67.517C160.57 67.517 160.927 67.6108 161.232 67.7983C161.537 67.9858 161.774 68.2491 161.942 68.5881C162.111 68.9271 162.195 69.3229 162.195 69.7756C162.195 70.2263 162.111 70.6203 161.942 70.9574C161.774 71.2945 161.537 71.5568 161.232 71.7443C160.927 71.9318 160.57 72.0256 160.161 72.0256ZM160.164 71.3125C160.429 71.3125 160.649 71.2424 160.823 71.1023C160.997 70.9621 161.126 70.7756 161.209 70.5426C161.295 70.3097 161.337 70.053 161.337 69.7727C161.337 69.4943 161.295 69.2386 161.209 69.0057C161.126 68.7708 160.997 68.5824 160.823 68.4403C160.649 68.2983 160.429 68.2273 160.164 68.2273C159.897 68.2273 159.675 68.2983 159.499 68.4403C159.325 68.5824 159.195 68.7708 159.11 69.0057C159.027 69.2386 158.985 69.4943 158.985 69.7727C158.985 70.053 159.027 70.3097 159.11 70.5426C159.195 70.7756 159.325 70.9621 159.499 71.1023C159.675 71.2424 159.897 71.3125 160.164 71.3125ZM166.413 68.6392L165.643 68.7756C165.611 68.6771 165.56 68.5833 165.49 68.4943C165.422 68.4053 165.329 68.3324 165.211 68.2756C165.094 68.2187 164.947 68.1903 164.771 68.1903C164.531 68.1903 164.33 68.2443 164.169 68.3523C164.008 68.4583 163.927 68.5956 163.927 68.7642C163.927 68.91 163.981 69.0275 164.089 69.1165C164.197 69.2055 164.372 69.2784 164.612 69.3352L165.305 69.4943C165.707 69.5871 166.006 69.7301 166.203 69.9233C166.4 70.1165 166.498 70.3674 166.498 70.6761C166.498 70.9375 166.423 71.1705 166.271 71.375C166.122 71.5777 165.912 71.7367 165.643 71.8523C165.376 71.9678 165.067 72.0256 164.714 72.0256C164.226 72.0256 163.827 71.9214 163.518 71.7131C163.21 71.5028 163.02 71.2045 162.95 70.8182L163.771 70.6932C163.822 70.9072 163.927 71.0691 164.086 71.179C164.246 71.2869 164.453 71.3409 164.709 71.3409C164.987 71.3409 165.21 71.2831 165.376 71.1676C165.543 71.0502 165.626 70.9072 165.626 70.7386C165.626 70.6023 165.575 70.4877 165.473 70.3949C165.372 70.3021 165.218 70.232 165.01 70.1847L164.271 70.0227C163.864 69.9299 163.563 69.7822 163.368 69.5795C163.175 69.3769 163.078 69.1203 163.078 68.8097C163.078 68.5521 163.15 68.3267 163.294 68.1335C163.438 67.9403 163.637 67.7898 163.89 67.6818C164.144 67.572 164.435 67.517 164.763 67.517C165.234 67.517 165.605 67.6193 165.876 67.8239C166.147 68.0265 166.326 68.2983 166.413 68.6392ZM169.469 67.5739V68.2557H167.086V67.5739H169.469ZM167.725 66.5284H168.574V70.6562C168.574 70.821 168.599 70.9451 168.648 71.0284C168.698 71.1098 168.761 71.1657 168.839 71.196C168.918 71.2244 169.004 71.2386 169.097 71.2386C169.165 71.2386 169.225 71.2339 169.276 71.2244C169.327 71.215 169.367 71.2074 169.395 71.2017L169.549 71.9034C169.5 71.9223 169.43 71.9413 169.339 71.9602C169.248 71.9811 169.134 71.9924 168.998 71.9943C168.774 71.9981 168.566 71.9583 168.373 71.875C168.18 71.7917 168.023 71.6629 167.904 71.4886C167.785 71.3144 167.725 71.0956 167.725 70.8324V66.5284ZM170.969 71.9915C170.813 71.9915 170.68 71.9366 170.568 71.8267C170.456 71.715 170.4 71.5805 170.4 71.4233C170.4 71.268 170.456 71.1354 170.568 71.0256C170.68 70.9138 170.813 70.858 170.969 70.858C171.124 70.858 171.257 70.9138 171.369 71.0256C171.481 71.1354 171.537 71.268 171.537 71.4233C171.537 71.5275 171.51 71.6231 171.457 71.7102C171.406 71.7955 171.338 71.8636 171.253 71.9148C171.167 71.9659 171.073 71.9915 170.969 71.9915ZM173.234 71.9915C173.079 71.9915 172.945 71.9366 172.834 71.8267C172.722 71.715 172.666 71.5805 172.666 71.4233C172.666 71.268 172.722 71.1354 172.834 71.0256C172.945 70.9138 173.079 70.858 173.234 70.858C173.39 70.858 173.523 70.9138 173.635 71.0256C173.747 71.1354 173.802 71.268 173.802 71.4233C173.802 71.5275 173.776 71.6231 173.723 71.7102C173.672 71.7955 173.604 71.8636 173.518 71.9148C173.433 71.9659 173.338 71.9915 173.234 71.9915ZM175.5 71.9915C175.345 71.9915 175.211 71.9366 175.099 71.8267C174.988 71.715 174.932 71.5805 174.932 71.4233C174.932 71.268 174.988 71.1354 175.099 71.0256C175.211 70.9138 175.345 70.858 175.5 70.858C175.655 70.858 175.789 70.9138 175.9 71.0256C176.012 71.1354 176.068 71.268 176.068 71.4233C176.068 71.5275 176.041 71.6231 175.988 71.7102C175.937 71.7955 175.869 71.8636 175.784 71.9148C175.699 71.9659 175.604 71.9915 175.5 71.9915Z" fill="#C9CECD" fill-opacity="0.6"/>
<path d="M45.0044 114.27V108.451H47.0783C47.531 108.451 47.906 108.534 48.2033 108.699C48.5007 108.863 48.7232 109.089 48.8709 109.375C49.0186 109.659 49.0925 109.979 49.0925 110.335C49.0925 110.693 49.0177 111.015 48.8681 111.301C48.7203 111.585 48.4969 111.81 48.1976 111.977C47.9003 112.142 47.5262 112.224 47.0755 112.224H45.6493V111.48H46.9959C47.2819 111.48 47.5139 111.431 47.6919 111.332C47.87 111.232 48.0007 111.095 48.084 110.923C48.1673 110.751 48.209 110.555 48.209 110.335C48.209 110.115 48.1673 109.92 48.084 109.75C48.0007 109.579 47.869 109.446 47.6891 109.349C47.5111 109.252 47.2762 109.204 46.9846 109.204H45.8823V114.27H45.0044ZM50.0534 114.27V109.906H50.8745V110.599H50.9199C50.9995 110.364 51.1396 110.18 51.3404 110.045C51.543 109.909 51.7722 109.841 52.0279 109.841C52.0809 109.841 52.1434 109.842 52.2154 109.846C52.2892 109.85 52.347 109.855 52.3887 109.86V110.673C52.3546 110.663 52.294 110.653 52.2069 110.642C52.1197 110.628 52.0326 110.622 51.9455 110.622C51.7447 110.622 51.5658 110.664 51.4086 110.75C51.2533 110.833 51.1301 110.949 51.0392 111.099C50.9483 111.247 50.9029 111.415 50.9029 111.605V114.27H50.0534ZM54.8482 114.358C54.4183 114.358 54.048 114.266 53.7374 114.082C53.4287 113.896 53.19 113.636 53.0215 113.301C52.8548 112.964 52.7715 112.569 52.7715 112.116C52.7715 111.669 52.8548 111.275 53.0215 110.934C53.19 110.593 53.4249 110.327 53.726 110.136C54.0291 109.945 54.3832 109.849 54.7885 109.849C55.0347 109.849 55.2734 109.89 55.5044 109.971C55.7355 110.053 55.9429 110.181 56.1266 110.355C56.3103 110.529 56.4552 110.755 56.5613 111.034C56.6673 111.31 56.7203 111.646 56.7203 112.042V112.343H53.2516V111.707H55.888C55.888 111.484 55.8425 111.286 55.7516 111.113C55.6607 110.939 55.5328 110.802 55.3681 110.701C55.2052 110.601 55.0139 110.551 54.7942 110.551C54.5556 110.551 54.3472 110.609 54.1692 110.727C53.9931 110.842 53.8567 110.994 53.7601 111.181C53.6654 111.367 53.6181 111.569 53.6181 111.787V112.284C53.6181 112.575 53.6692 112.824 53.7715 113.028C53.8757 113.233 54.0205 113.389 54.2061 113.497C54.3917 113.603 54.6086 113.656 54.8567 113.656C55.0177 113.656 55.1645 113.633 55.2971 113.588C55.4296 113.54 55.5442 113.47 55.6408 113.377C55.7374 113.285 55.8113 113.17 55.8624 113.034L56.6664 113.179C56.602 113.415 56.4864 113.623 56.3198 113.801C56.155 113.977 55.9476 114.114 55.6976 114.213C55.4495 114.309 55.1664 114.358 54.8482 114.358ZM60.6088 115.906V113.591H60.5577C60.5066 113.683 60.4327 113.789 60.3361 113.909C60.2414 114.028 60.1107 114.132 59.9441 114.221C59.7774 114.31 59.5615 114.355 59.2963 114.355C58.9441 114.355 58.6297 114.265 58.3532 114.085C58.0785 113.903 57.8626 113.645 57.7054 113.309C57.5501 112.972 57.4725 112.568 57.4725 112.096C57.4725 111.625 57.5511 111.221 57.7083 110.886C57.8674 110.551 58.0852 110.294 58.3617 110.116C58.6382 109.938 58.9516 109.849 59.302 109.849C59.5729 109.849 59.7907 109.895 59.9554 109.985C60.1221 110.074 60.2509 110.179 60.3418 110.298C60.4346 110.417 60.5066 110.522 60.5577 110.613H60.6287V109.906H61.4583V115.906H60.6088ZM59.4838 113.63C59.7282 113.63 59.9346 113.566 60.1032 113.437C60.2736 113.306 60.4024 113.126 60.4895 112.895C60.5785 112.663 60.623 112.395 60.623 112.088C60.623 111.785 60.5795 111.52 60.4924 111.292C60.4052 111.065 60.2774 110.888 60.1088 110.761C59.9403 110.634 59.7319 110.571 59.4838 110.571C59.2282 110.571 59.0151 110.637 58.8446 110.77C58.6742 110.902 58.5454 111.083 58.4583 111.312C58.373 111.541 58.3304 111.8 58.3304 112.088C58.3304 112.379 58.374 112.642 58.4611 112.875C58.5482 113.108 58.677 113.292 58.8475 113.429C59.0198 113.563 59.2319 113.63 59.4838 113.63ZM65.3645 112.46V109.906H66.2168V114.27H65.3816V113.514H65.3361C65.2357 113.747 65.0748 113.941 64.8532 114.096C64.6335 114.25 64.3598 114.326 64.0321 114.326C63.7518 114.326 63.5037 114.265 63.2878 114.142C63.0738 114.017 62.9052 113.832 62.7821 113.588C62.6609 113.343 62.6003 113.041 62.6003 112.681V109.906H63.4498V112.579C63.4498 112.877 63.5321 113.113 63.6969 113.289C63.8617 113.466 64.0757 113.554 64.339 113.554C64.498 113.554 64.6562 113.514 64.8134 113.434C64.9725 113.355 65.1041 113.234 65.2083 113.074C65.3143 112.913 65.3664 112.708 65.3645 112.46ZM69.2388 114.358C68.8089 114.358 68.4386 114.266 68.128 114.082C67.8193 113.896 67.5807 113.636 67.4121 113.301C67.2454 112.964 67.1621 112.569 67.1621 112.116C67.1621 111.669 67.2454 111.275 67.4121 110.934C67.5807 110.593 67.8155 110.327 68.1167 110.136C68.4197 109.945 68.7739 109.849 69.1792 109.849C69.4254 109.849 69.664 109.89 69.8951 109.971C70.1261 110.053 70.3335 110.181 70.5172 110.355C70.7009 110.529 70.8458 110.755 70.9519 111.034C71.0579 111.31 71.111 111.646 71.111 112.042V112.343H67.6422V111.707H70.2786C70.2786 111.484 70.2331 111.286 70.1422 111.113C70.0513 110.939 69.9235 110.802 69.7587 110.701C69.5958 110.601 69.4045 110.551 69.1848 110.551C68.9462 110.551 68.7379 110.609 68.5598 110.727C68.3837 110.842 68.2473 110.994 68.1507 111.181C68.056 111.367 68.0087 111.569 68.0087 111.787V112.284C68.0087 112.575 68.0598 112.824 68.1621 113.028C68.2663 113.233 68.4112 113.389 68.5968 113.497C68.7824 113.603 68.9992 113.656 69.2473 113.656C69.4083 113.656 69.5551 113.633 69.6877 113.588C69.8203 113.54 69.9348 113.47 70.0314 113.377C70.128 113.285 70.2019 113.17 70.253 113.034L71.057 113.179C70.9926 113.415 70.8771 113.623 70.7104 113.801C70.5456 113.977 70.3382 114.114 70.0882 114.213C69.8401 114.309 69.557 114.358 69.2388 114.358ZM72.9029 108.451V114.27H72.0534V108.451H72.9029ZM46.2061 124.366C45.9296 124.366 45.6796 124.315 45.4561 124.213C45.2327 124.109 45.0556 123.958 44.9249 123.761C44.7961 123.564 44.7317 123.323 44.7317 123.037C44.7317 122.79 44.7791 122.588 44.8738 122.429C44.9685 122.27 45.0963 122.144 45.2573 122.051C45.4183 121.958 45.5982 121.888 45.7971 121.841C45.9959 121.793 46.1986 121.757 46.405 121.733C46.6664 121.702 46.8785 121.678 47.0414 121.659C47.2042 121.638 47.3226 121.605 47.3965 121.559C47.4703 121.514 47.5073 121.44 47.5073 121.338V121.318C47.5073 121.07 47.4372 120.877 47.2971 120.741C47.1588 120.605 46.9524 120.537 46.6777 120.537C46.3917 120.537 46.1664 120.6 46.0016 120.727C45.8387 120.852 45.726 120.991 45.6635 121.145L44.8652 120.963C44.9599 120.698 45.0982 120.484 45.28 120.321C45.4637 120.156 45.6749 120.037 45.9135 119.963C46.1522 119.887 46.4031 119.849 46.6664 119.849C46.8406 119.849 47.0253 119.87 47.2203 119.912C47.4173 119.951 47.601 120.025 47.7715 120.133C47.9438 120.241 48.0849 120.395 48.1948 120.596C48.3046 120.795 48.3596 121.054 48.3596 121.372V124.27H47.53V123.673H47.4959C47.441 123.783 47.3586 123.891 47.2488 123.997C47.1389 124.103 46.9978 124.191 46.8255 124.261C46.6531 124.331 46.4467 124.366 46.2061 124.366ZM46.3908 123.684C46.6257 123.684 46.8264 123.638 46.9931 123.545C47.1616 123.452 47.2895 123.331 47.3766 123.181C47.4656 123.03 47.5101 122.868 47.5101 122.696V122.133C47.4798 122.163 47.4211 122.192 47.334 122.218C47.2488 122.243 47.1512 122.265 47.0414 122.284C46.9315 122.301 46.8245 122.317 46.7203 122.332C46.6162 122.345 46.5291 122.357 46.459 122.366C46.2942 122.387 46.1436 122.422 46.0073 122.471C45.8728 122.52 45.7649 122.592 45.6834 122.684C45.6039 122.775 45.5641 122.896 45.5641 123.048C45.5641 123.258 45.6417 123.417 45.7971 123.525C45.9524 123.631 46.1503 123.684 46.3908 123.684ZM50.3404 121.679V124.27H49.4909V119.906H50.3063V120.616H50.3603C50.4606 120.385 50.6178 120.199 50.8319 120.059C51.0478 119.919 51.3195 119.849 51.6472 119.849C51.9445 119.849 52.205 119.912 52.4284 120.037C52.6519 120.16 52.8252 120.343 52.9483 120.588C53.0714 120.832 53.133 121.134 53.133 121.494V124.27H52.2836V121.596C52.2836 121.28 52.2012 121.033 52.0364 120.855C51.8716 120.675 51.6453 120.585 51.3574 120.585C51.1605 120.585 50.9853 120.627 50.8319 120.713C50.6803 120.798 50.5601 120.923 50.4711 121.088C50.3839 121.251 50.3404 121.448 50.3404 121.679ZM55.5421 124.366C55.2656 124.366 55.0156 124.315 54.7921 124.213C54.5686 124.109 54.3915 123.958 54.2608 123.761C54.132 123.564 54.0676 123.323 54.0676 123.037C54.0676 122.79 54.115 122.588 54.2097 122.429C54.3044 122.27 54.4322 122.144 54.5932 122.051C54.7542 121.958 54.9341 121.888 55.133 121.841C55.3319 121.793 55.5345 121.757 55.7409 121.733C56.0023 121.702 56.2144 121.678 56.3773 121.659C56.5402 121.638 56.6586 121.605 56.7324 121.559C56.8063 121.514 56.8432 121.44 56.8432 121.338V121.318C56.8432 121.07 56.7731 120.877 56.633 120.741C56.4947 120.605 56.2883 120.537 56.0137 120.537C55.7277 120.537 55.5023 120.6 55.3375 120.727C55.1747 120.852 55.062 120.991 54.9995 121.145L54.2012 120.963C54.2959 120.698 54.4341 120.484 54.6159 120.321C54.7997 120.156 55.0108 120.037 55.2495 119.963C55.4881 119.887 55.7391 119.849 56.0023 119.849C56.1766 119.849 56.3612 119.87 56.5563 119.912C56.7533 119.951 56.937 120.025 57.1074 120.133C57.2798 120.241 57.4209 120.395 57.5307 120.596C57.6406 120.795 57.6955 121.054 57.6955 121.372V124.27H56.8659V123.673H56.8319C56.7769 123.783 56.6945 123.891 56.5847 123.997C56.4748 124.103 56.3337 124.191 56.1614 124.261C55.9891 124.331 55.7826 124.366 55.5421 124.366ZM55.7267 123.684C55.9616 123.684 56.1623 123.638 56.329 123.545C56.4976 123.452 56.6254 123.331 56.7125 123.181C56.8016 123.03 56.8461 122.868 56.8461 122.696V122.133C56.8158 122.163 56.757 122.192 56.6699 122.218C56.5847 122.243 56.4872 122.265 56.3773 122.284C56.2675 122.301 56.1605 122.317 56.0563 122.332C55.9521 122.345 55.865 122.357 55.7949 122.366C55.6301 122.387 55.4796 122.422 55.3432 122.471C55.2087 122.52 55.1008 122.592 55.0194 122.684C54.9398 122.775 54.9 122.896 54.9 123.048C54.9 123.258 54.9777 123.417 55.133 123.525C55.2883 123.631 55.4862 123.684 55.7267 123.684ZM59.6763 118.451V124.27H58.8269V118.451H59.6763ZM61.356 125.906C61.2291 125.906 61.1136 125.895 61.0094 125.875C60.9052 125.856 60.8276 125.835 60.7765 125.812L60.981 125.116C61.1363 125.158 61.2746 125.176 61.3958 125.17C61.517 125.164 61.624 125.119 61.7168 125.034C61.8115 124.949 61.8948 124.809 61.9668 124.616L62.0719 124.326L60.4753 119.906H61.3844L62.4895 123.292H62.535L63.6401 119.906H64.552L62.7537 124.852C62.6704 125.079 62.5643 125.271 62.4355 125.429C62.3068 125.588 62.1533 125.707 61.9753 125.787C61.7973 125.866 61.5908 125.906 61.356 125.906ZM68.6202 120.971L67.8503 121.108C67.8181 121.009 67.767 120.915 67.6969 120.826C67.6287 120.737 67.5359 120.664 67.4185 120.608C67.3011 120.551 67.1543 120.522 66.9782 120.522C66.7376 120.522 66.5369 120.576 66.3759 120.684C66.2149 120.79 66.1344 120.928 66.1344 121.096C66.1344 121.242 66.1884 121.359 66.2963 121.449C66.4043 121.538 66.5785 121.61 66.8191 121.667L67.5123 121.826C67.9138 121.919 68.213 122.062 68.41 122.255C68.6069 122.449 68.7054 122.699 68.7054 123.008C68.7054 123.27 68.6297 123.502 68.4782 123.707C68.3285 123.91 68.1193 124.069 67.8503 124.184C67.5833 124.3 67.2736 124.358 66.9213 124.358C66.4327 124.358 66.034 124.253 65.7253 124.045C65.4166 123.835 65.2272 123.537 65.1571 123.15L65.9782 123.025C66.0293 123.239 66.1344 123.401 66.2935 123.511C66.4526 123.619 66.66 123.673 66.9157 123.673C67.1941 123.673 67.4166 123.615 67.5833 123.5C67.7499 123.382 67.8333 123.239 67.8333 123.071C67.8333 122.934 67.7821 122.82 67.6799 122.727C67.5795 122.634 67.4251 122.564 67.2168 122.517L66.4782 122.355C66.071 122.262 65.7698 122.114 65.5748 121.912C65.3816 121.709 65.285 121.452 65.285 121.142C65.285 120.884 65.3569 120.659 65.5009 120.466C65.6448 120.272 65.8437 120.122 66.0975 120.014C66.3513 119.904 66.642 119.849 66.9696 119.849C67.4412 119.849 67.8124 119.951 68.0833 120.156C68.3541 120.359 68.5331 120.63 68.6202 120.971ZM69.6394 124.27V119.906H70.4888V124.27H69.6394ZM70.0684 119.233C69.9206 119.233 69.7937 119.183 69.6877 119.085C69.5835 118.984 69.5314 118.865 69.5314 118.727C69.5314 118.587 69.5835 118.467 69.6877 118.369C69.7937 118.269 69.9206 118.218 70.0684 118.218C70.2161 118.218 70.342 118.269 70.4462 118.369C70.5523 118.467 70.6053 118.587 70.6053 118.727C70.6053 118.865 70.5523 118.984 70.4462 119.085C70.342 119.183 70.2161 119.233 70.0684 119.233ZM74.9015 120.971L74.1316 121.108C74.0994 121.009 74.0482 120.915 73.9782 120.826C73.91 120.737 73.8172 120.664 73.6998 120.608C73.5823 120.551 73.4355 120.522 73.2594 120.522C73.0189 120.522 72.8181 120.576 72.6571 120.684C72.4962 120.79 72.4157 120.928 72.4157 121.096C72.4157 121.242 72.4696 121.359 72.5776 121.449C72.6855 121.538 72.8598 121.61 73.1003 121.667L73.7935 121.826C74.195 121.919 74.4943 122.062 74.6912 122.255C74.8882 122.449 74.9867 122.699 74.9867 123.008C74.9867 123.27 74.9109 123.502 74.7594 123.707C74.6098 123.91 74.4005 124.069 74.1316 124.184C73.8645 124.3 73.5549 124.358 73.2026 124.358C72.714 124.358 72.3153 124.253 72.0066 124.045C71.6979 123.835 71.5085 123.537 71.4384 123.15L72.2594 123.025C72.3105 123.239 72.4157 123.401 72.5748 123.511C72.7338 123.619 72.9412 123.673 73.1969 123.673C73.4753 123.673 73.6979 123.615 73.8645 123.5C74.0312 123.382 74.1145 123.239 74.1145 123.071C74.1145 122.934 74.0634 122.82 73.9611 122.727C73.8607 122.634 73.7064 122.564 73.498 122.517L72.7594 122.355C72.3522 122.262 72.0511 122.114 71.856 121.912C71.6628 121.709 71.5662 121.452 71.5662 121.142C71.5662 120.884 71.6382 120.659 71.7821 120.466C71.9261 120.272 72.1249 120.122 72.3787 120.014C72.6325 119.904 72.9232 119.849 73.2509 119.849C73.7225 119.849 74.0937 119.951 74.3645 120.156C74.6354 120.359 74.8143 120.63 74.9015 120.971ZM76.4803 124.324C76.325 124.324 76.1915 124.269 76.0797 124.159C75.968 124.047 75.9121 123.913 75.9121 123.755C75.9121 123.6 75.968 123.467 76.0797 123.358C76.1915 123.246 76.325 123.19 76.4803 123.19C76.6356 123.19 76.7691 123.246 76.8809 123.358C76.9926 123.467 77.0485 123.6 77.0485 123.755C77.0485 123.859 77.022 123.955 76.9689 124.042C76.9178 124.127 76.8496 124.196 76.7644 124.247C76.6792 124.298 76.5845 124.324 76.4803 124.324ZM78.7459 124.324C78.5906 124.324 78.4571 124.269 78.3453 124.159C78.2336 124.047 78.1777 123.913 78.1777 123.755C78.1777 123.6 78.2336 123.467 78.3453 123.358C78.4571 123.246 78.5906 123.19 78.7459 123.19C78.9012 123.19 79.0347 123.246 79.1465 123.358C79.2582 123.467 79.3141 123.6 79.3141 123.755C79.3141 123.859 79.2876 123.955 79.2346 124.042C79.1834 124.127 79.1152 124.196 79.03 124.247C78.9448 124.298 78.8501 124.324 78.7459 124.324ZM81.0115 124.324C80.8562 124.324 80.7227 124.269 80.611 124.159C80.4992 124.047 80.4434 123.913 80.4434 123.755C80.4434 123.6 80.4992 123.467 80.611 123.358C80.7227 123.246 80.8562 123.19 81.0115 123.19C81.1668 123.19 81.3004 123.246 81.4121 123.358C81.5239 123.467 81.5797 123.6 81.5797 123.755C81.5797 123.859 81.5532 123.955 81.5002 124.042C81.449 124.127 81.3809 124.196 81.2956 124.247C81.2104 124.298 81.1157 124.324 81.0115 124.324Z" fill="#C9CECD" fill-opacity="0.6"/>
<defs>
<linearGradient id="paint0_linear_1354_9028" x1="389.977" y1="201.403" x2="194.988" y2="201.403" gradientUnits="userSpaceOnUse">
<stop stop-color="#2C2E2D"/>
<stop offset="1" stop-color="#2C2E2D" stop-opacity="0"/>
</linearGradient>
<linearGradient id="paint1_linear_1354_9028" x1="2.69201" y1="22.4766" x2="191.629" y2="22.4766" gradientUnits="userSpaceOnUse">
<stop stop-color="#2C2E2D"/>
<stop offset="1" stop-color="#2C2E2D" stop-opacity="0"/>
</linearGradient>
<linearGradient id="paint2_linear_1354_9028" x1="92.3724" y1="73.3083" x2="103.957" y2="32.772" gradientUnits="userSpaceOnUse">
<stop stop-color="#EE6B41"/>
<stop offset="0.28125" stop-color="#FFB5A8" stop-opacity="0.9"/>
<stop offset="0.78125" stop-color="#A170BF" stop-opacity="0.85"/>
<stop offset="1" stop-color="#213C9C"/>
</linearGradient>
<linearGradient id="paint3_linear_1354_9028" x1="91.2505" y1="77.3421" x2="69.0509" y2="107.121" gradientUnits="userSpaceOnUse">
<stop stop-color="#EE6B41"/>
<stop offset="0.28125" stop-color="#FFB5A8" stop-opacity="0.9"/>
<stop offset="0.78125" stop-color="#A170BF" stop-opacity="0.85"/>
<stop offset="1" stop-color="#213C9C"/>
</linearGradient>
<linearGradient id="paint4_linear_1354_9028" x1="94.3211" y1="75.2944" x2="166.787" y2="49.1207" gradientUnits="userSpaceOnUse">
<stop stop-color="#EE6B41"/>
<stop offset="0.28125" stop-color="#FFB5A8" stop-opacity="0.9"/>
<stop offset="0.78125" stop-color="#A170BF" stop-opacity="0.85"/>
<stop offset="1" stop-color="#213C9C"/>
</linearGradient>
<linearGradient id="paint5_linear_1354_9028" x1="93.8671" y1="79.0489" x2="60.5918" y2="28.3642" gradientUnits="userSpaceOnUse">
<stop stop-color="#EE6B41"/>
<stop offset="0.28125" stop-color="#FFB5A8" stop-opacity="0.9"/>
<stop offset="0.78125" stop-color="#A170BF" stop-opacity="0.85"/>
<stop offset="1" stop-color="#213C9C"/>
</linearGradient>
</defs>
</svg>
