<svg width="231" height="196" viewBox="0 0 231 196" fill="none" xmlns="http://www.w3.org/2000/svg">
<path d="M122.204 27.2195C127.917 28.7852 130.306 35.6836 127.088 40.6568C122.589 47.6091 117.218 56.9215 115.092 64.6065C112.578 73.6948 111.321 86.3028 110.73 94.547C110.422 98.8427 106.267 101.88 102.114 100.741C97.9023 99.587 95.8887 94.7505 97.9091 90.8792C101.742 83.534 107.22 72.2033 109.681 63.1236C111.748 55.5002 111.656 44.8803 111.115 36.6019C110.721 30.5689 116.373 25.6214 122.204 27.2195Z" fill="url(#paint0_linear_1012_11829)"/>
<path d="M61.4786 156.988C58.1096 154.553 57.8546 149.603 60.8771 146.749C66.8513 141.108 75.9332 132.083 81.5273 124.381C87.3155 116.411 93.2787 104.541 96.8681 96.9198C98.6415 93.1545 103.425 91.8538 106.798 94.292C110.216 96.7625 110.434 101.802 107.326 104.654C101.104 110.363 91.6334 119.555 85.8947 127.538C80.3486 135.252 74.8283 146.709 71.4641 154.226C69.7434 158.071 64.8926 159.456 61.4786 156.988Z" fill="url(#paint1_linear_1012_11829)"/>
<path d="M222.522 49.3896C224.623 53.3611 222.572 58.2684 218.278 59.5896C205.04 63.6626 178.801 71.9496 160.665 79.0644C141.676 86.5137 116.41 99.4278 104.38 105.734C100.673 107.677 96.0935 105.983 94.5604 102.089C93.0154 98.1651 95.2574 93.7729 99.3362 92.7004C112.497 89.2396 139.751 81.7383 158.759 74.2242C177.337 66.88 201.16 53.2628 212.459 46.5756C216.003 44.4781 220.596 45.7496 222.522 49.3896Z" fill="url(#paint2_linear_1012_11829)"/>
<path d="M54.4695 19.9947C61.3344 14.6879 71.5075 18.68 73.3339 27.1626C76.3152 41.0096 81.0175 58.8324 86.8886 67.6481C91.6692 74.8264 100.519 80.533 108.83 84.6452C117.033 88.7043 119.548 100.342 112.727 106.445C104.956 113.397 91.9447 107.297 90.9333 96.9197C89.9534 86.8655 87.8302 76.4625 83.458 69.9398C76.9749 60.268 63.2658 46.7094 53.7335 37.758C48.5125 32.8551 48.803 24.3751 54.4695 19.9947Z" fill="url(#paint3_linear_1012_11829)"/>
<circle cx="103.442" cy="96.4144" r="8.99697" transform="rotate(15.3265 103.442 96.4144)" fill="white"/>
<circle cx="103.442" cy="96.4144" r="8.49697" transform="rotate(15.3265 103.442 96.4144)" stroke="white" stroke-opacity="0.22"/>
<defs>
<linearGradient id="paint0_linear_1012_11829" x1="104.36" y1="93.4539" x2="121.97" y2="31.832" gradientUnits="userSpaceOnUse">
<stop stop-color="#EE6B41"/>
<stop offset="0.28125" stop-color="#FFB5A8" stop-opacity="0.9"/>
<stop offset="0.78125" stop-color="#A170BF" stop-opacity="0.85"/>
<stop offset="1" stop-color="#213C9C"/>
</linearGradient>
<linearGradient id="paint1_linear_1012_11829" x1="102.057" y1="100.411" x2="63.0648" y2="152.472" gradientUnits="userSpaceOnUse">
<stop stop-color="#EE6B41"/>
<stop offset="0.28125" stop-color="#FFB5A8" stop-opacity="0.9"/>
<stop offset="0.78125" stop-color="#A170BF" stop-opacity="0.85"/>
<stop offset="1" stop-color="#213C9C"/>
</linearGradient>
<linearGradient id="paint2_linear_1012_11829" x1="107.323" y1="96.4686" x2="217.483" y2="56.6802" gradientUnits="userSpaceOnUse">
<stop stop-color="#EE6B41"/>
<stop offset="0.28125" stop-color="#FFB5A8" stop-opacity="0.9"/>
<stop offset="0.78125" stop-color="#A170BF" stop-opacity="0.85"/>
<stop offset="1" stop-color="#213C9C"/>
</linearGradient>
<linearGradient id="paint3_linear_1012_11829" x1="106.633" y1="102.178" x2="56.0488" y2="25.1283" gradientUnits="userSpaceOnUse">
<stop stop-color="#EE6B41"/>
<stop offset="0.28125" stop-color="#FFB5A8" stop-opacity="0.9"/>
<stop offset="0.78125" stop-color="#A170BF" stop-opacity="0.85"/>
<stop offset="1" stop-color="#213C9C"/>
</linearGradient>
</defs>
</svg>
