<svg width="303" height="85" viewBox="0 0 303 85" fill="none" xmlns="http://www.w3.org/2000/svg">
<path d="M47.3267 35.4545H51.1193L55.125 45.2273H55.2955L59.3011 35.4545H63.0938V50H60.1108V40.5327H59.9901L56.2259 49.929H54.1946L50.4304 40.4972H50.3097V50H47.3267V35.4545ZM70.4996 50.2131C69.3964 50.2131 68.4424 49.9787 67.6374 49.5099C66.8372 49.0365 66.2193 48.3783 65.7837 47.5355C65.3481 46.688 65.1303 45.7055 65.1303 44.5881C65.1303 43.4612 65.3481 42.4763 65.7837 41.6335C66.2193 40.786 66.8372 40.1278 67.6374 39.6591C68.4424 39.1856 69.3964 38.9489 70.4996 38.9489C71.6029 38.9489 72.5546 39.1856 73.3548 39.6591C74.1597 40.1278 74.7799 40.786 75.2156 41.6335C75.6512 42.4763 75.869 43.4612 75.869 44.5881C75.869 45.7055 75.6512 46.688 75.2156 47.5355C74.7799 48.3783 74.1597 49.0365 73.3548 49.5099C72.5546 49.9787 71.6029 50.2131 70.4996 50.2131ZM70.5138 47.8693C71.0157 47.8693 71.4348 47.7273 71.771 47.4432C72.1071 47.1544 72.3604 46.7614 72.5309 46.2642C72.7061 45.767 72.7937 45.2012 72.7937 44.5668C72.7937 43.9323 72.7061 43.3665 72.5309 42.8693C72.3604 42.3722 72.1071 41.9792 71.771 41.6903C71.4348 41.4015 71.0157 41.2571 70.5138 41.2571C70.0072 41.2571 69.5811 41.4015 69.2354 41.6903C68.8945 41.9792 68.6365 42.3722 68.4613 42.8693C68.2908 43.3665 68.2056 43.9323 68.2056 44.5668C68.2056 45.2012 68.2908 45.767 68.4613 46.2642C68.6365 46.7614 68.8945 47.1544 69.2354 47.4432C69.5811 47.7273 70.0072 47.8693 70.5138 47.8693ZM87.6552 39.0909L83.8413 50H80.4322L76.6183 39.0909H79.8143L82.0799 46.8963H82.1935L84.4521 39.0909H87.6552ZM89.2035 50V39.0909H92.229V50H89.2035ZM90.7234 37.6847C90.2736 37.6847 89.8877 37.5355 89.5657 37.2372C89.2485 36.9342 89.0898 36.572 89.0898 36.1506C89.0898 35.7339 89.2485 35.3764 89.5657 35.0781C89.8877 34.7751 90.2736 34.6236 90.7234 34.6236C91.1732 34.6236 91.5567 34.7751 91.8739 35.0781C92.1959 35.3764 92.3569 35.7339 92.3569 36.1506C92.3569 36.572 92.1959 36.9342 91.8739 37.2372C91.5567 37.5355 91.1732 37.6847 90.7234 37.6847ZM99.6243 50.2131C98.5021 50.2131 97.5362 49.9858 96.7266 49.5312C95.9216 49.072 95.3014 48.4233 94.8658 47.5852C94.4302 46.7424 94.2124 45.7457 94.2124 44.5952C94.2124 43.473 94.4302 42.4882 94.8658 41.6406C95.3014 40.7931 95.9145 40.1326 96.7053 39.6591C97.5007 39.1856 98.4335 38.9489 99.5036 38.9489C100.223 38.9489 100.893 39.0649 101.513 39.2969C102.138 39.5241 102.683 39.8674 103.147 40.3267C103.616 40.786 103.98 41.3636 104.241 42.0597C104.501 42.7509 104.631 43.5606 104.631 44.4886V45.3196H95.4197V43.4446H101.783C101.783 43.009 101.689 42.6231 101.499 42.2869C101.31 41.9508 101.047 41.688 100.711 41.4986C100.379 41.3045 99.9936 41.2074 99.5533 41.2074C99.094 41.2074 98.6868 41.3139 98.3317 41.527C97.9813 41.7353 97.7067 42.017 97.5078 42.3722C97.3089 42.7225 97.2071 43.1132 97.2024 43.544V45.3267C97.2024 45.8665 97.3018 46.3329 97.5007 46.7259C97.7043 47.1188 97.9908 47.4219 98.3601 47.6349C98.7294 47.848 99.1674 47.9545 99.674 47.9545C100.01 47.9545 100.318 47.9072 100.597 47.8125C100.877 47.7178 101.116 47.5758 101.315 47.3864C101.513 47.197 101.665 46.965 101.769 46.6903L104.567 46.875C104.425 47.5473 104.134 48.1345 103.694 48.6364C103.258 49.1335 102.695 49.5218 102.004 49.8011C101.317 50.0758 100.524 50.2131 99.6243 50.2131ZM115.683 42.2017L112.913 42.3722C112.865 42.1354 112.763 41.9223 112.607 41.733C112.451 41.5388 112.245 41.3849 111.989 41.2713C111.738 41.1529 111.438 41.0938 111.087 41.0938C110.619 41.0938 110.223 41.1932 109.901 41.392C109.579 41.5862 109.418 41.8466 109.418 42.1733C109.418 42.4337 109.522 42.6539 109.731 42.8338C109.939 43.0137 110.297 43.1581 110.803 43.267L112.778 43.6648C113.838 43.8826 114.629 44.233 115.15 44.7159C115.671 45.1989 115.931 45.8333 115.931 46.6193C115.931 47.3343 115.72 47.9616 115.299 48.5014C114.882 49.0412 114.309 49.4626 113.58 49.7656C112.856 50.0639 112.02 50.2131 111.073 50.2131C109.629 50.2131 108.478 49.9124 107.621 49.3111C106.769 48.705 106.27 47.8812 106.123 46.8395L109.099 46.6832C109.189 47.1236 109.406 47.4598 109.752 47.6918C110.098 47.919 110.54 48.0327 111.08 48.0327C111.611 48.0327 112.037 47.9309 112.359 47.7273C112.685 47.5189 112.851 47.2514 112.856 46.9247C112.851 46.6501 112.735 46.4252 112.508 46.25C112.281 46.0701 111.93 45.9328 111.457 45.8381L109.567 45.4616C108.502 45.2486 107.709 44.8793 107.188 44.3537C106.672 43.8281 106.414 43.1581 106.414 42.3438C106.414 41.643 106.603 41.0393 106.982 40.5327C107.366 40.026 107.903 39.6354 108.594 39.3608C109.29 39.0862 110.105 38.9489 111.038 38.9489C112.415 38.9489 113.5 39.2401 114.29 39.8224C115.086 40.4048 115.55 41.1979 115.683 42.2017ZM119.605 50.1847C119.136 50.1847 118.734 50.0189 118.397 49.6875C118.066 49.3513 117.9 48.9489 117.9 48.4801C117.9 48.0161 118.066 47.6184 118.397 47.2869C118.734 46.9555 119.136 46.7898 119.605 46.7898C120.059 46.7898 120.457 46.9555 120.798 47.2869C121.139 47.6184 121.309 48.0161 121.309 48.4801C121.309 48.7926 121.229 49.0791 121.068 49.3395C120.912 49.5952 120.706 49.8011 120.45 49.9574C120.194 50.1089 119.913 50.1847 119.605 50.1847ZM123.85 50V35.4545H126.876V40.9233H126.968C127.101 40.6297 127.292 40.3314 127.543 40.0284C127.799 39.7206 128.13 39.465 128.538 39.2614C128.95 39.053 129.461 38.9489 130.072 38.9489C130.867 38.9489 131.601 39.1572 132.273 39.5739C132.946 39.9858 133.483 40.6084 133.886 41.4418C134.288 42.2704 134.489 43.3097 134.489 44.5597C134.489 45.7765 134.293 46.804 133.9 47.642C133.512 48.4754 132.981 49.1075 132.309 49.5384C131.641 49.9645 130.893 50.1776 130.065 50.1776C129.478 50.1776 128.978 50.0805 128.566 49.8864C128.159 49.6922 127.825 49.4484 127.565 49.1548C127.304 48.8565 127.105 48.5559 126.968 48.2528H126.833V50H123.85ZM126.812 44.5455C126.812 45.1941 126.902 45.7599 127.082 46.2429C127.262 46.7259 127.522 47.1023 127.863 47.3722C128.204 47.6373 128.618 47.7699 129.106 47.7699C129.598 47.7699 130.015 47.6349 130.356 47.3651C130.697 47.0904 130.955 46.7116 131.13 46.2287C131.31 45.741 131.4 45.1799 131.4 44.5455C131.4 43.9157 131.312 43.3617 131.137 42.8835C130.962 42.4053 130.704 42.0312 130.363 41.7614C130.022 41.4915 129.603 41.3565 129.106 41.3565C128.613 41.3565 128.197 41.4867 127.856 41.7472C127.52 42.0076 127.262 42.3769 127.082 42.8551C126.902 43.3333 126.812 43.8968 126.812 44.5455ZM139.534 35.4545V50H136.508V35.4545H139.534ZM146.886 50.2131C145.783 50.2131 144.829 49.9787 144.024 49.5099C143.224 49.0365 142.606 48.3783 142.17 47.5355C141.735 46.688 141.517 45.7055 141.517 44.5881C141.517 43.4612 141.735 42.4763 142.17 41.6335C142.606 40.786 143.224 40.1278 144.024 39.6591C144.829 39.1856 145.783 38.9489 146.886 38.9489C147.99 38.9489 148.941 39.1856 149.741 39.6591C150.546 40.1278 151.167 40.786 151.602 41.6335C152.038 42.4763 152.256 43.4612 152.256 44.5881C152.256 45.7055 152.038 46.688 151.602 47.5355C151.167 48.3783 150.546 49.0365 149.741 49.5099C148.941 49.9787 147.99 50.2131 146.886 50.2131ZM146.901 47.8693C147.402 47.8693 147.821 47.7273 148.158 47.4432C148.494 47.1544 148.747 46.7614 148.918 46.2642C149.093 45.767 149.18 45.2012 149.18 44.5668C149.18 43.9323 149.093 43.3665 148.918 42.8693C148.747 42.3722 148.494 41.9792 148.158 41.6903C147.821 41.4015 147.402 41.2571 146.901 41.2571C146.394 41.2571 145.968 41.4015 145.622 41.6903C145.281 41.9792 145.023 42.3722 144.848 42.8693C144.678 43.3665 144.592 43.9323 144.592 44.5668C144.592 45.2012 144.678 45.767 144.848 46.2642C145.023 46.7614 145.281 47.1544 145.622 47.4432C145.968 47.7273 146.394 47.8693 146.901 47.8693ZM159.152 50.2131C158.049 50.2131 157.095 49.9787 156.29 49.5099C155.49 49.0365 154.872 48.3783 154.436 47.5355C154 46.688 153.783 45.7055 153.783 44.5881C153.783 43.4612 154 42.4763 154.436 41.6335C154.872 40.786 155.49 40.1278 156.29 39.6591C157.095 39.1856 158.049 38.9489 159.152 38.9489C160.255 38.9489 161.207 39.1856 162.007 39.6591C162.812 40.1278 163.432 40.786 163.868 41.6335C164.304 42.4763 164.521 43.4612 164.521 44.5881C164.521 45.7055 164.304 46.688 163.868 47.5355C163.432 48.3783 162.812 49.0365 162.007 49.5099C161.207 49.9787 160.255 50.2131 159.152 50.2131ZM159.166 47.8693C159.668 47.8693 160.087 47.7273 160.423 47.4432C160.759 47.1544 161.013 46.7614 161.183 46.2642C161.358 45.767 161.446 45.2012 161.446 44.5668C161.446 43.9323 161.358 43.3665 161.183 42.8693C161.013 42.3722 160.759 41.9792 160.423 41.6903C160.087 41.4015 159.668 41.2571 159.166 41.2571C158.66 41.2571 158.233 41.4015 157.888 41.6903C157.547 41.9792 157.289 42.3722 157.114 42.8693C156.943 43.3665 156.858 43.9323 156.858 44.5668C156.858 45.2012 156.943 45.767 157.114 46.2642C157.289 46.7614 157.547 47.1544 157.888 47.4432C158.233 47.7273 158.66 47.8693 159.166 47.8693ZM166.489 54.0909V39.0909H169.472V40.9233H169.607C169.739 40.6297 169.931 40.3314 170.182 40.0284C170.438 39.7206 170.769 39.465 171.176 39.2614C171.588 39.053 172.099 38.9489 172.71 38.9489C173.506 38.9489 174.24 39.1572 174.912 39.5739C175.584 39.9858 176.122 40.6084 176.524 41.4418C176.927 42.2704 177.128 43.3097 177.128 44.5597C177.128 45.7765 176.931 46.804 176.538 47.642C176.15 48.4754 175.62 49.1075 174.947 49.5384C174.28 49.9645 173.532 50.1776 172.703 50.1776C172.116 50.1776 171.616 50.0805 171.205 49.8864C170.797 49.6922 170.464 49.4484 170.203 49.1548C169.943 48.8565 169.744 48.5559 169.607 48.2528H169.514V54.0909H166.489ZM169.45 44.5455C169.45 45.1941 169.54 45.7599 169.72 46.2429C169.9 46.7259 170.161 47.1023 170.501 47.3722C170.842 47.6373 171.257 47.7699 171.744 47.7699C172.237 47.7699 172.653 47.6349 172.994 47.3651C173.335 47.0904 173.593 46.7116 173.768 46.2287C173.948 45.741 174.038 45.1799 174.038 44.5455C174.038 43.9157 173.951 43.3617 173.776 42.8835C173.6 42.4053 173.342 42.0312 173.001 41.7614C172.661 41.4915 172.241 41.3565 171.744 41.3565C171.252 41.3565 170.835 41.4867 170.494 41.7472C170.158 42.0076 169.9 42.3769 169.72 42.8551C169.54 43.3333 169.45 43.8968 169.45 44.5455Z" fill="white"/>
<g filter="url(#filter0_f_1196_9153)">
<g clip-path="url(#clip0_1196_9153)">
<rect x="216" y="33" width="60" height="20.6897" rx="4" fill="#213C9C"/>
<path d="M233.404 41.9744L231.06 42.2301C230.994 41.9934 230.878 41.7708 230.712 41.5625C230.551 41.3542 230.334 41.1861 230.059 41.0582C229.784 40.9304 229.448 40.8665 229.05 40.8665C228.515 40.8665 228.066 40.9825 227.701 41.2145C227.341 41.4465 227.164 41.7472 227.168 42.1165C227.164 42.4337 227.28 42.6918 227.516 42.8906C227.758 43.0895 228.156 43.2528 228.71 43.3807L230.57 43.7784C231.603 44.0009 232.37 44.3537 232.871 44.8366C233.378 45.3196 233.634 45.9517 233.638 46.733C233.634 47.4195 233.433 48.0256 233.035 48.5511C232.642 49.072 232.095 49.4792 231.394 49.7727C230.693 50.0663 229.888 50.2131 228.979 50.2131C227.644 50.2131 226.569 49.9337 225.755 49.375C224.941 48.8116 224.455 48.0279 224.299 47.0241L226.806 46.7827C226.92 47.2751 227.161 47.6468 227.531 47.8977C227.9 48.1487 228.38 48.2741 228.972 48.2741C229.583 48.2741 230.073 48.1487 230.442 47.8977C230.817 47.6468 231.004 47.3366 231.004 46.9673C231.004 46.6548 230.883 46.3968 230.641 46.1932C230.405 45.9896 230.035 45.8333 229.533 45.7244L227.673 45.3338C226.626 45.116 225.852 44.7491 225.35 44.233C224.848 43.7121 224.6 43.054 224.604 42.2585C224.6 41.5862 224.782 41.0038 225.151 40.5114C225.525 40.0142 226.044 39.6307 226.707 39.3608C227.374 39.0862 228.144 38.9489 229.015 38.9489C230.293 38.9489 231.299 39.2211 232.033 39.7656C232.772 40.3101 233.229 41.0464 233.404 41.9744ZM238.898 50.2202C238.206 50.2202 237.584 50.0971 237.03 49.8509C236.481 49.5999 236.045 49.2306 235.723 48.7429C235.406 48.2552 235.247 47.6539 235.247 46.9389C235.247 46.3234 235.361 45.8144 235.588 45.4119C235.815 45.0095 236.125 44.6875 236.518 44.446C236.911 44.2045 237.354 44.0223 237.847 43.8991C238.344 43.7713 238.857 43.679 239.388 43.6222C240.027 43.5559 240.545 43.4967 240.943 43.4446C241.341 43.3878 241.63 43.3026 241.81 43.1889C241.994 43.0705 242.087 42.8883 242.087 42.642V42.5994C242.087 42.0644 241.928 41.6501 241.611 41.3565C241.294 41.063 240.837 40.9162 240.24 40.9162C239.61 40.9162 239.111 41.0535 238.741 41.3281C238.377 41.6027 238.131 41.9271 238.003 42.3011L235.602 41.9602C235.792 41.2973 236.104 40.7434 236.54 40.2983C236.975 39.8485 237.508 39.5123 238.138 39.2898C238.768 39.0625 239.464 38.9489 240.226 38.9489C240.751 38.9489 241.275 39.0104 241.795 39.1335C242.316 39.2566 242.792 39.4602 243.223 39.7443C243.654 40.0237 244 40.4048 244.26 40.8878C244.525 41.3707 244.658 41.9744 244.658 42.6989V50H242.186V48.5014H242.101C241.945 48.8045 241.724 49.0885 241.44 49.3537C241.161 49.6141 240.808 49.8248 240.382 49.9858C239.961 50.142 239.466 50.2202 238.898 50.2202ZM239.565 48.331C240.081 48.331 240.529 48.2292 240.908 48.0256C241.286 47.8172 241.578 47.5426 241.781 47.2017C241.99 46.8608 242.094 46.4891 242.094 46.0866V44.8011C242.013 44.8674 241.876 44.929 241.682 44.9858C241.492 45.0426 241.279 45.0923 241.043 45.1349C240.806 45.1776 240.571 45.2154 240.339 45.2486C240.107 45.2817 239.906 45.3101 239.736 45.3338C239.352 45.3859 239.009 45.4711 238.706 45.5895C238.403 45.7079 238.164 45.8736 237.989 46.0866C237.813 46.295 237.726 46.5649 237.726 46.8963C237.726 47.3698 237.899 47.7273 238.244 47.9688C238.59 48.2102 239.03 48.331 239.565 48.331ZM256.597 39.0909L252.712 50H249.871L245.986 39.0909H248.727L251.234 47.1946H251.348L253.862 39.0909H256.597ZM262.834 50.2131C261.74 50.2131 260.796 49.9858 260 49.5312C259.21 49.072 258.601 48.4233 258.175 47.5852C257.749 46.7424 257.536 45.7505 257.536 44.6094C257.536 43.4872 257.749 42.5024 258.175 41.6548C258.606 40.8026 259.207 40.1397 259.979 39.6662C260.751 39.188 261.658 38.9489 262.699 38.9489C263.372 38.9489 264.006 39.0578 264.603 39.2756C265.204 39.4886 265.734 39.8201 266.194 40.2699C266.658 40.7197 267.022 41.2926 267.287 41.9886C267.552 42.6799 267.685 43.5038 267.685 44.4602V45.2486H258.743V43.5156H265.221C265.216 43.0232 265.109 42.5852 264.901 42.2017C264.693 41.8134 264.401 41.508 264.027 41.2855C263.658 41.063 263.227 40.9517 262.735 40.9517C262.209 40.9517 261.748 41.0795 261.35 41.3352C260.952 41.5862 260.642 41.9176 260.419 42.3295C260.202 42.7367 260.09 43.1842 260.086 43.6719V45.1847C260.086 45.8191 260.202 46.3636 260.434 46.8182C260.666 47.268 260.99 47.6136 261.407 47.8551C261.823 48.0919 262.311 48.2102 262.87 48.2102C263.244 48.2102 263.582 48.1581 263.885 48.054C264.188 47.9451 264.451 47.7865 264.674 47.5781C264.896 47.3698 265.064 47.1117 265.178 46.804L267.578 47.0739C267.427 47.7083 267.138 48.2623 266.712 48.7358C266.291 49.2045 265.751 49.5691 265.093 49.8295C264.435 50.0852 263.682 50.2131 262.834 50.2131Z" fill="white"/>
</g>
</g>
<rect x="216" y="33" width="60" height="20.6897" rx="4" fill="#213C9C"/>
<path d="M235.423 42.5795L233.548 42.7841C233.495 42.5947 233.402 42.4167 233.27 42.25C233.141 42.0833 232.967 41.9489 232.747 41.8466C232.527 41.7443 232.259 41.6932 231.94 41.6932C231.512 41.6932 231.152 41.786 230.861 41.9716C230.573 42.1572 230.431 42.3977 230.435 42.6932C230.431 42.947 230.524 43.1534 230.713 43.3125C230.906 43.4716 231.224 43.6023 231.668 43.7045L233.156 44.0227C233.982 44.2008 234.596 44.483 234.997 44.8693C235.402 45.2557 235.607 45.7614 235.611 46.3864C235.607 46.9356 235.446 47.4205 235.128 47.8409C234.813 48.2576 234.376 48.5833 233.815 48.8182C233.255 49.053 232.611 49.1705 231.884 49.1705C230.815 49.1705 229.955 48.947 229.304 48.5C228.652 48.0492 228.264 47.4223 228.139 46.6193L230.145 46.4261C230.236 46.8201 230.429 47.1174 230.724 47.3182C231.02 47.5189 231.404 47.6193 231.878 47.6193C232.366 47.6193 232.759 47.5189 233.054 47.3182C233.353 47.1174 233.503 46.8693 233.503 46.5739C233.503 46.3239 233.406 46.1174 233.213 45.9545C233.024 45.7917 232.728 45.6667 232.327 45.5795L230.838 45.267C230.001 45.0928 229.382 44.7992 228.98 44.3864C228.579 43.9697 228.38 43.4432 228.384 42.8068C228.38 42.2689 228.526 41.803 228.821 41.4091C229.12 41.0114 229.535 40.7045 230.065 40.4886C230.599 40.2689 231.215 40.1591 231.912 40.1591C232.935 40.1591 233.74 40.3769 234.327 40.8125C234.918 41.2481 235.283 41.8371 235.423 42.5795ZM239.818 49.1761C239.265 49.1761 238.767 49.0777 238.324 48.8807C237.884 48.6799 237.536 48.3845 237.278 47.9943C237.025 47.6042 236.898 47.1231 236.898 46.5511C236.898 46.0587 236.989 45.6515 237.17 45.3295C237.352 45.0076 237.6 44.75 237.915 44.5568C238.229 44.3636 238.583 44.2178 238.977 44.1193C239.375 44.017 239.786 43.9432 240.21 43.8977C240.722 43.8447 241.136 43.7973 241.455 43.7557C241.773 43.7102 242.004 43.642 242.148 43.5511C242.295 43.4564 242.369 43.3106 242.369 43.1136V43.0795C242.369 42.6515 242.242 42.3201 241.989 42.0852C241.735 41.8504 241.369 41.733 240.892 41.733C240.388 41.733 239.989 41.8428 239.693 42.0625C239.402 42.2822 239.205 42.5417 239.102 42.8409L237.182 42.5682C237.333 42.0379 237.583 41.5947 237.932 41.2386C238.28 40.8788 238.706 40.6098 239.21 40.4318C239.714 40.25 240.271 40.1591 240.881 40.1591C241.301 40.1591 241.72 40.2083 242.136 40.3068C242.553 40.4053 242.934 40.5682 243.278 40.7955C243.623 41.0189 243.9 41.3239 244.108 41.7102C244.32 42.0966 244.426 42.5795 244.426 43.1591V49H242.449V47.8011H242.381C242.256 48.0436 242.08 48.2708 241.852 48.483C241.629 48.6913 241.347 48.8598 241.006 48.9886C240.669 49.1136 240.273 49.1761 239.818 49.1761ZM240.352 47.6648C240.765 47.6648 241.123 47.5833 241.426 47.4205C241.729 47.2538 241.962 47.0341 242.125 46.7614C242.292 46.4886 242.375 46.1913 242.375 45.8693V44.8409C242.311 44.8939 242.201 44.9432 242.045 44.9886C241.894 45.0341 241.723 45.0739 241.534 45.108C241.345 45.142 241.157 45.1723 240.972 45.1989C240.786 45.2254 240.625 45.2481 240.489 45.267C240.182 45.3087 239.907 45.3769 239.665 45.4716C239.422 45.5663 239.231 45.6989 239.091 45.8693C238.951 46.036 238.881 46.2519 238.881 46.517C238.881 46.8958 239.019 47.1818 239.295 47.375C239.572 47.5682 239.924 47.6648 240.352 47.6648ZM253.977 40.2727L250.869 49H248.597L245.489 40.2727H247.682L249.688 46.7557H249.778L251.79 40.2727H253.977ZM258.967 49.1705C258.092 49.1705 257.337 48.9886 256.7 48.625C256.068 48.2576 255.581 47.7386 255.24 47.0682C254.899 46.3939 254.729 45.6004 254.729 44.6875C254.729 43.7898 254.899 43.0019 255.24 42.3239C255.585 41.642 256.066 41.1117 256.683 40.733C257.301 40.3504 258.026 40.1591 258.859 40.1591C259.397 40.1591 259.905 40.2462 260.382 40.4205C260.863 40.5909 261.287 40.8561 261.655 41.2159C262.026 41.5758 262.318 42.0341 262.53 42.5909C262.742 43.1439 262.848 43.803 262.848 44.5682V45.1989H255.695V43.8125H260.876C260.873 43.4186 260.787 43.0682 260.621 42.7614C260.454 42.4508 260.221 42.2064 259.922 42.0284C259.626 41.8504 259.282 41.7614 258.888 41.7614C258.467 41.7614 258.098 41.8636 257.78 42.0682C257.462 42.2689 257.214 42.5341 257.036 42.8636C256.861 43.1894 256.772 43.5473 256.768 43.9375V45.1477C256.768 45.6553 256.861 46.0909 257.047 46.4545C257.232 46.8144 257.492 47.0909 257.825 47.2841C258.159 47.4735 258.549 47.5682 258.996 47.5682C259.295 47.5682 259.566 47.5265 259.808 47.4432C260.051 47.3561 260.261 47.2292 260.439 47.0625C260.617 46.8958 260.751 46.6894 260.842 46.4432L262.763 46.6591C262.642 47.1667 262.411 47.6098 262.07 47.9886C261.732 48.3636 261.301 48.6553 260.774 48.8636C260.248 49.0682 259.645 49.1705 258.967 49.1705Z" fill="white"/>
<rect x="2" y="2" width="299" height="81" rx="22" stroke="url(#paint0_linear_1196_9153)" stroke-width="4"/>
<defs>
<filter id="filter0_f_1196_9153" x="200" y="17" width="92" height="52.6914" filterUnits="userSpaceOnUse" color-interpolation-filters="sRGB">
<feFlood flood-opacity="0" result="BackgroundImageFix"/>
<feBlend mode="normal" in="SourceGraphic" in2="BackgroundImageFix" result="shape"/>
<feGaussianBlur stdDeviation="8" result="effect1_foregroundBlur_1196_9153"/>
</filter>
<linearGradient id="paint0_linear_1196_9153" x1="303" y1="42.7742" x2="4.93617e-06" y2="42.7742" gradientUnits="userSpaceOnUse">
<stop stop-color="#2C2E2D"/>
<stop offset="1" stop-color="#2C2E2D" stop-opacity="0"/>
</linearGradient>
<clipPath id="clip0_1196_9153">
<rect x="216" y="33" width="60" height="20.6897" rx="4" fill="white"/>
</clipPath>
</defs>
</svg>
