<svg width="35" height="35" viewBox="0 0 35 35" fill="none" xmlns="http://www.w3.org/2000/svg">
<path d="M33.5413 4.37404C32.1448 5.35911 30.5986 6.11253 28.9622 6.60529C28.0839 5.59541 26.9166 4.87963 25.6183 4.55477C24.3199 4.2299 22.9531 4.31162 21.7027 4.78887C20.4523 5.26612 19.3787 6.11587 18.6269 7.22321C17.8752 8.33054 17.4817 9.64203 17.4997 10.9803V12.4386C14.9368 12.5051 12.3974 11.9367 10.1074 10.7841C7.81743 9.63145 5.84805 7.93038 4.37467 5.83237C4.37467 5.83237 -1.45866 18.9574 11.6663 24.7907C8.66294 26.8294 5.08511 27.8516 1.45801 27.7074C14.583 34.999 30.6247 27.7074 30.6247 10.9365C30.6233 10.5303 30.5843 10.1251 30.508 9.72612C31.9964 8.2583 33.0467 6.40508 33.5413 4.37404V4.37404Z" fill="#1C93E4" stroke="#1C93E4" stroke-width="2" stroke-linecap="round" stroke-linejoin="round"/>
</svg>
