<svg width="456" height="126" viewBox="0 0 456 126" fill="none" xmlns="http://www.w3.org/2000/svg">
<path d="M157.529 96.3248H195.536C206.75 96.3248 213.94 88.5144 213.94 78.5584C213.94 71.1772 210.516 65.8559 203.326 62.337C202.555 61.9078 201.956 61.4787 201.956 60.8779C201.956 60.4487 202.555 59.8479 203.583 59.1613C208.89 55.4707 211.116 52.0376 211.116 47.6603C211.116 37.4468 204.439 33.0696 189.63 33.0696H157.358C153.848 33.0696 152.821 35.387 152.821 37.4468C152.821 38.9059 153.249 40.1075 155.047 41.3949C157.187 42.854 157.786 44.3989 157.701 48.2611V81.1332C157.786 84.9955 157.187 86.5404 155.047 88.0853C153.249 89.2869 152.821 90.5743 152.821 91.9475C152.821 94.0074 153.934 96.3248 157.529 96.3248ZM177.474 78.3009V72.6363C177.474 71.263 178.245 70.1473 179.443 69.4607C181.326 68.5166 183.038 67.9158 184.665 67.9158C186.462 67.9158 188.089 68.6024 189.801 69.9756C192.198 71.9497 193.482 74.5245 193.482 78.5584C193.482 82.9356 189.887 87.1412 184.922 87.1412C180.042 87.1412 177.474 84.3947 177.474 78.3009ZM177.474 58.303V45.2572C177.474 43.4548 178.416 42.5965 180.385 42.5965H181.498C187.661 42.5965 190.486 45.1713 190.486 49.2911C190.486 51.3509 189.459 53.5825 187.147 55.1274C184.922 56.6723 182.268 57.9597 179.7 59.5046C178.587 60.1054 177.474 59.6762 177.474 58.303ZM218.472 96.3248H257.078C259.817 96.3248 261.016 95.4665 261.957 92.9775C263.156 89.4585 265.296 81.5624 265.296 78.3009C265.296 75.8119 264.183 74.5245 262.128 74.5245C259.56 74.5245 256.821 77.0993 254.596 79.0734C250.316 82.8498 246.806 86.2829 243.639 86.2829C239.359 86.2829 238.331 83.4506 238.331 78.3868L238.417 48.8619C238.331 44.828 239.273 43.2831 242.012 41.6524C244.323 40.2791 244.837 39.0776 244.837 37.4468C244.837 35.3011 243.467 32.9838 238.845 33.0696H218.301C214.791 33.0696 213.764 35.387 213.764 37.4468C213.764 38.9059 214.192 40.1075 215.99 41.3949C218.13 42.854 218.729 44.3989 218.643 48.2611V81.1332C218.729 84.9955 217.958 86.5404 215.818 88.1711C214.106 89.3727 213.678 90.6601 213.678 92.0334C213.678 94.0932 214.877 96.4106 218.472 96.3248ZM300.422 97.7838C317.97 97.7838 333.036 84.9097 333.036 67.1433C333.036 47.2312 318.655 32.2113 298.367 32.2113C280.049 32.1255 265.497 46.1154 265.497 64.2252C265.497 82.5923 277.566 97.7838 300.422 97.7838ZM286.982 55.4707C286.982 47.317 290.235 43.0256 295.2 43.1115C304.017 43.2831 311.55 57.7022 311.55 73.5804C311.55 82.249 308.64 86.7979 303.161 86.7979C294.344 86.7979 286.982 71.263 286.982 55.4707ZM369.388 97.7838C386.936 97.7838 402.002 84.9097 402.002 67.1433C402.002 47.2312 387.621 32.2113 367.333 32.2113C349.015 32.1255 334.463 46.1154 334.463 64.2252C334.463 82.5923 346.532 97.7838 369.388 97.7838ZM355.948 55.4707C355.948 47.317 359.201 43.0256 364.166 43.1115C372.983 43.2831 380.516 57.7022 380.516 73.5804C380.516 82.249 377.605 86.7979 372.127 86.7979C363.31 86.7979 355.948 71.263 355.948 55.4707ZM404.219 96.3248H424.25C428.615 96.4106 429.985 94.1791 429.985 92.1192C430.071 90.6601 429.471 89.3727 427.417 88.1711C424.935 86.5404 423.993 84.9955 424.079 81.1332V80.6183C424.079 78.8159 424.592 77.786 426.304 77.1852C429.985 75.8119 435.035 74.1812 438.887 72.8938C448.817 69.6323 455.836 62.4228 455.836 53.6683C455.836 41.1374 446.848 33.0696 432.039 33.0696H404.048C400.538 32.9838 399.425 35.3011 399.425 37.361C399.425 38.8201 399.853 40.0217 401.565 41.3091C403.705 42.854 404.476 44.3989 404.39 48.2611V81.1332C404.476 84.9955 403.877 86.5404 401.737 88.0853C399.939 89.2869 399.511 90.5743 399.511 91.9475C399.511 94.0074 400.624 96.3248 404.219 96.3248ZM424.079 64.311V46.0296C424.079 44.4847 424.592 43.7981 426.047 43.7981H426.475C430.755 43.7981 434.351 48.6903 434.351 54.2691C434.351 58.7321 432.981 61.307 427.931 64.4826C426.818 65.1693 425.876 65.5984 425.277 65.5984C424.421 65.5984 424.079 64.9976 424.079 64.311Z" fill="white"/>
<path d="M19.559 105.644C10.8772 96.9622 14.1321 81.955 25.1537 76.5448C35.9328 71.2537 47.8873 64.338 55.5573 56.7404C63.5634 48.8099 70.8504 36.3189 76.3785 25.1612C81.8448 14.1282 96.889 10.9062 105.596 19.6127V19.6127C114.492 28.5096 110.904 43.9632 99.4942 49.2675C88.2674 54.4868 75.8953 61.4055 68.101 69.2841C60.6394 76.8263 54.0829 88.6568 49.0954 99.4911C43.8487 110.889 28.4311 114.516 19.559 105.644V105.644Z" fill="url(#paint0_linear_2112_19422)"/>
<defs>
<linearGradient id="paint0_linear_2112_19422" x1="96.5796" y1="27.804" x2="23.6506" y2="99.5609" gradientUnits="userSpaceOnUse">
<stop stop-color="#F3418D"/>
<stop offset="0.28125" stop-color="#F7D132"/>
<stop offset="0.78125" stop-color="#A1E58F"/>
<stop offset="1" stop-color="#5EBF9E"/>
</linearGradient>
</defs>
</svg>
