<?xml version="1.0" standalone="no"?>
<svg id="Ellipse1155" width="807" height="232" viewBox="0 0 807 232" fill="none" xmlns="http://www.w3.org/2000/svg" style="max-width: 100%; max-height: 100%;">
<path d="M803.829 42.8123C804.836 48.3467 803.337 54.3794 799.213 60.8996C795.081 67.432 788.391 74.323 779.285 81.4477C761.078 95.6943 733.56 110.608 698.704 125.293C629.024 154.649 530.427 182.917 419.445 203.102C308.462 223.288 206.227 231.546 130.672 228.606C92.8778 227.135 61.8712 222.865 39.8131 215.942C28.7818 212.48 20.0937 208.386 13.9265 203.726C7.77099 199.076 4.24378 193.957 3.2372 188.423C2.23062 182.888 3.72964 176.856 7.85347 170.335C11.9851 163.803 18.6753 156.912 27.781 149.787C45.9888 135.541 73.5063 120.627 108.362 105.942C178.043 76.5865 276.639 48.3181 387.622 28.1327C498.604 7.9474 600.84 -0.311193 676.395 2.62941C714.189 4.10035 745.195 8.37009 767.253 15.2932C778.285 18.7554 786.973 22.8494 793.14 27.5088C799.295 32.1593 802.823 37.2779 803.829 42.8123Z" stroke="url(#paint0_linear_1257_9040)" stroke-width="4" stroke-dasharray="0,0,0,0,0,1721.1119384765625"><animate attributeType="XML" attributeName="stroke-dasharray" repeatCount="indefinite" dur="6.25s" values="0,0,0,0,0,1721.1119384765625; 0,0,0,1187.567237548828,533.5447009277344,0; 0,0,266.7723504638672,1454.3395880126952,0,0; 0,860.5559692382812,0,860.5559692382812,0,0" keyTimes="0; 0.5; 0.655; 1"></animate></path>
<defs>
<linearGradient id="paint0_linear_1257_9040" x1="801.811" y1="20.5396" x2="-2.71636" y2="166.866" gradientUnits="userSpaceOnUse">
<stop stop-color="#EE6B41"></stop>
<stop offset="0.270833" stop-color="#DE8D7E" stop-opacity="0.497976"></stop>
<stop offset="0.46935" stop-color="#FCBDB6" stop-opacity="0.13"></stop>
<stop offset="0.50524" stop-color="#FEA9AD" stop-opacity="0.13"></stop>
<stop offset="0.770833" stop-color="#BF70BC" stop-opacity="0.597027"></stop>
<stop offset="1" stop-color="#213C9C"></stop>
</linearGradient>
</defs>
<setting>{"type":"shift","speed":8,"random":1,"shift":1,"size":1,"rupture":31}</setting></svg>