<?xml version="1.0" standalone="no"?>
<svg id="Group916" width="1082" height="796" viewBox="0 0 1082 796" fill="none" xmlns="http://www.w3.org/2000/svg" style="max-width: 100%; max-height: 100%;">
<path d="M994.223 622.161C982.779 645.295 959.407 661.425 926.473 670.58C893.541 679.735 851.272 681.843 802.491 677.087C704.943 667.577 581.792 630.666 456.216 568.543C330.641 506.42 226.577 430.927 159.828 359.159C126.449 323.27 102.476 288.392 89.7711 256.66C77.0652 224.927 75.7054 196.562 87.1497 173.428C98.594 150.294 121.966 134.164 154.899 125.009C187.832 115.854 230.101 113.746 278.882 118.502C376.43 128.012 499.581 164.923 625.157 227.046C750.732 289.169 854.796 364.662 921.545 436.43C954.924 472.319 978.897 507.197 991.602 538.929C1004.31 570.662 1005.67 599.027 994.223 622.161Z" stroke="url(#paint0_linear_1012_11804)" stroke-width="4" stroke-dasharray="0,0,883.7911875000001,1417.7483632812498"><animate attributeType="XML" attributeName="stroke-dasharray" repeatCount="indefinite" dur="4.545454545454546s" values="0,0,883.7911875000001,1417.7483632812498; 
          0,1417.7483632812498,883.7911875000001,0; 
          883.7911875000001,1417.7483632812498,0,0" keyTimes="0; 0.6159999999999999; 1"></animate></path>
<path d="M940.821 189.605C943.131 194.734 943.129 200.95 940.697 208.272C938.261 215.607 933.427 223.907 926.306 233.015C912.066 251.228 888.951 272.331 858.659 294.979C798.1 340.255 709.216 391.44 606.364 437.764C503.511 484.088 406.275 516.729 332.236 532.074C295.201 539.75 264.078 543.075 241.002 541.669C229.462 540.965 220.043 539.085 212.935 536.048C205.841 533.017 201.185 528.899 198.875 523.77C196.565 518.641 196.566 512.425 198.998 505.103C201.435 497.768 206.268 489.468 213.39 480.36C227.63 462.147 250.745 441.044 281.037 418.396C341.595 373.12 430.479 321.935 533.332 275.611C636.185 229.287 733.421 196.646 807.459 181.301C844.495 173.625 875.617 170.3 898.693 171.706C910.234 172.41 919.652 174.29 926.76 177.327C933.854 180.358 938.511 184.476 940.821 189.605Z" stroke="url(#paint1_linear_1012_11804)" stroke-width="4" stroke-dasharray="0,0,660.9073125000001,1060.2054804687498"><animate attributeType="XML" attributeName="stroke-dasharray" repeatCount="indefinite" dur="4.545454545454546s" values="0,0,660.9073125000001,1060.2054804687498; 
          0,1060.2054804687498,660.9073125000001,0; 
          660.9073125000001,1060.2054804687498,0,0" keyTimes="0; 0.6159999999999999; 1"></animate></path>
<defs>
<linearGradient id="paint0_linear_1012_11804" x1="-252" y1="-20.0001" x2="1330.5" y2="826" gradientUnits="userSpaceOnUse">
<stop stop-color="#EE6B41"></stop>
<stop offset="1" stop-color="#EE6B41" stop-opacity="0"></stop>
</linearGradient>
<linearGradient id="paint1_linear_1012_11804" x1="419.5" y1="235" x2="1206" y2="357" gradientUnits="userSpaceOnUse">
<stop offset="0.231153" stop-color="#213C9C"></stop>
<stop offset="1" stop-color="#213C9C" stop-opacity="0"></stop>
</linearGradient>
</defs>
<setting>{"type":"loader","speed":11,"random":1,"shift":1,"size":1,"rupture":24}</setting></svg>